<svg width="24" height="46" viewBox="0 0 24 46" fill="none" xmlns="http://www.w3.org/2000/svg">
<path fill-rule="evenodd" clip-rule="evenodd" d="M9.79289 29.7929C9.40237 30.1834 9.40237 30.8166 9.79289 31.2071L12.5858 34L9.79289 36.7929C9.40237 37.1834 9.40237 37.8166 9.79289 38.2071C10.1834 38.5976 10.8166 38.5976 11.2071 38.2071L14.7071 34.7071C15.0976 34.3166 15.0976 33.6834 14.7071 33.2929L11.2071 29.7929C10.8166 29.4024 10.1834 29.4024 9.79289 29.7929Z" fill="#ECECEC"/>
<path fill-rule="evenodd" clip-rule="evenodd" d="M9.79289 7.79289C9.40237 8.18342 9.40237 8.81658 9.79289 9.20711L12.5858 12L9.79289 14.7929C9.40237 15.1834 9.40237 15.8166 9.79289 16.2071C10.1834 16.5976 10.8166 16.5976 11.2071 16.2071L14.7071 12.7071C15.0976 12.3166 15.0976 11.6834 14.7071 11.2929L11.2071 7.79289C10.8166 7.40237 10.1834 7.40237 9.79289 7.79289Z" fill="black"/>
</svg>
