<svg width="50" height="24" viewBox="0 0 50 24" fill="none" xmlns="http://www.w3.org/2000/svg">
<path fill-rule="evenodd" clip-rule="evenodd" d="M35.9091 7.26521C35.5032 6.8906 34.8706 6.9159 34.496 7.32172L31.2652 10.8217C30.9116 11.2047 30.9116 11.7952 31.2652 12.1782L34.496 15.6783C34.8706 16.0841 35.5032 16.1094 35.909 15.7348C36.3149 15.3602 36.3402 14.7276 35.9656 14.3217L34.284 12.5L44 12.5C44.5523 12.5 45 12.0523 45 11.5C45 10.9477 44.5523 10.5 44 10.5L34.284 10.5L35.9656 8.67829C36.3402 8.27247 36.3149 7.63981 35.9091 7.26521Z" fill="#ECECEC"/>
<path fill-rule="evenodd" clip-rule="evenodd" d="M9.90906 7.26521C9.50324 6.8906 8.87058 6.9159 8.49597 7.32172L5.2652 10.8217C4.9116 11.2047 4.9116 11.7952 5.26519 12.1782L8.49597 15.6783C8.87057 16.0841 9.50323 16.1094 9.90905 15.7348C10.3149 15.3602 10.3402 14.7276 9.96558 14.3217L8.28397 12.5L18 12.5C18.5523 12.5 19 12.0523 19 11.5C19 10.9477 18.5523 10.5 18 10.5L8.284 10.5L9.96557 8.67829C10.3402 8.27247 10.3149 7.63981 9.90906 7.26521Z" fill="black"/>
</svg>
