<svg width="88" height="24" viewBox="0 0 88 24" fill="none" xmlns="http://www.w3.org/2000/svg">
<path d="M3 3V11H11V3H3ZM9 9H5V5H9V9ZM3 13V21H11V13H3ZM9 19H5V15H9V19ZM13 3V11H21V3H13ZM19 9H15V5H19V9ZM13 13V21H21V13H13ZM19 19H15V15H19V19Z" fill="#C7CED9"/>
<path d="M27 3V11H35V3H27ZM33 9H29V5H33V9ZM27 13V21H35V13H27ZM33 19H29V15H33V19ZM37 3V11H45V3H37ZM43 9H39V5H43V9ZM37 13V21H45V13H37ZM43 19H39V15H43V19Z" fill="#131926"/>
<path d="M48 5.5H66V7.66667H48V5.5ZM48 10.9167H66V13.0833H48V10.9167ZM48 18.5V16.3333H66V18.5H48Z" fill="#C7CED9"/>
<path d="M70 5.5H88V7.66667H70V5.5ZM70 10.9167H88V13.0833H70V10.9167ZM70 18.5V16.3333H88V18.5H70Z" fill="black"/>
</svg>
