<svg width="40" height="20" viewBox="0 0 40 20" fill="none" xmlns="http://www.w3.org/2000/svg">
<path d="M16.175 6.17502L12.15 2.15002C11.8417 1.84169 11.4167 1.66669 10.975 1.66669H5C4.08334 1.66669 3.34167 2.41669 3.34167 3.33335L3.33334 16.6667C3.33334 17.5834 4.075 18.3334 4.99167 18.3334H15C15.9167 18.3334 16.6667 17.5834 16.6667 16.6667V7.35835C16.6667 6.91669 16.4917 6.49169 16.175 6.17502ZM8.525 14.4084L6.75834 12.6417C6.43334 12.3167 6.43334 11.7917 6.75834 11.4667C7.08334 11.1417 7.60834 11.1417 7.93334 11.4667L9.10834 12.6417L12.0583 9.69169C12.3833 9.36669 12.9083 9.36669 13.2333 9.69169C13.5583 10.0167 13.5583 10.5417 13.2333 10.8667L9.7 14.4C9.38334 14.7334 8.85 14.7334 8.525 14.4084ZM11.6667 7.50002C11.2083 7.50002 10.8333 7.12502 10.8333 6.66669V2.91669L15.4167 7.50002H11.6667Z" fill="#DADEE6"/>
<path d="M36.175 6.17502L32.15 2.15002C31.8417 1.84169 31.4167 1.66669 30.975 1.66669H25C24.0833 1.66669 23.3417 2.41669 23.3417 3.33335L23.3333 16.6667C23.3333 17.5834 24.075 18.3334 24.9917 18.3334H35C35.9167 18.3334 36.6667 17.5834 36.6667 16.6667V7.35835C36.6667 6.91669 36.4917 6.49169 36.175 6.17502ZM28.525 14.4084L26.7583 12.6417C26.4333 12.3167 26.4333 11.7917 26.7583 11.4667C27.0833 11.1417 27.6083 11.1417 27.9333 11.4667L29.1083 12.6417L32.0583 9.69169C32.3833 9.36669 32.9083 9.36669 33.2333 9.69169C33.5583 10.0167 33.5583 10.5417 33.2333 10.8667L29.7 14.4C29.3833 14.7334 28.85 14.7334 28.525 14.4084ZM31.6667 7.50002C31.2083 7.50002 30.8333 7.12502 30.8333 6.66669V2.91669L35.4167 7.50002H31.6667Z" fill="#A855F7"/>
</svg>
