<svg width="37" height="36" viewBox="0 0 37 36" fill="none" xmlns="http://www.w3.org/2000/svg">
<path fill-rule="evenodd" clip-rule="evenodd" d="M6.58126 5.92488C7.46321 5.04689 8.89297 5.04707 9.77471 5.92527L18.6086 14.7179L27.4537 5.90929C28.3352 5.0308 29.7649 5.03016 30.6472 5.90785C31.5294 6.78554 31.5301 8.20921 30.6486 9.0877L21.8017 17.8982L30.7585 26.9118C31.6402 27.79 31.64 29.2136 30.7581 30.0916C29.8761 30.9696 28.4464 30.9694 27.5646 30.0912L18.6097 21.0795L9.84988 30.0229C8.96843 30.9014 7.53867 30.902 6.65643 30.0243C5.77418 29.1466 5.77354 27.7229 6.65498 26.8445L15.4166 17.8992L6.58087 9.10472C5.69913 8.22653 5.6993 6.80286 6.58126 5.92488Z" fill="white"/>
</svg>
