<svg width="174" height="87" viewBox="0 0 174 87" fill="none" xmlns="http://www.w3.org/2000/svg">
<path fill-rule="evenodd" clip-rule="evenodd" d="M7.5 9C6.67157 9 6 9.67157 6 10.5V25.5C6 26.3284 6.67157 27 7.5 27H28.5C29.3284 27 30 26.3284 30 25.5V17.25C30 16.4216 29.3284 15.75 28.5 15.75H25.6056C24.101 15.75 22.6959 14.998 21.8613 13.7462L19.1425 9.66795C18.8643 9.25065 18.396 9 17.8944 9H7.5ZM3 10.5C3 8.01472 5.01472 6 7.5 6H17.8944C19.399 6 20.8041 6.75195 21.6387 8.00385L24.3575 12.082C24.6357 12.4993 25.104 12.75 25.6056 12.75H28.5C30.9853 12.75 33 14.7647 33 17.25V25.5C33 27.9853 30.9853 30 28.5 30H7.5C5.01472 30 3 27.9853 3 25.5V10.5Z" fill="black"/>
<path fill-rule="evenodd" clip-rule="evenodd" d="M50.5 4.48907C50.5 3.66668 51.1707 3 51.9981 3H65.4813C66.3087 3 66.9795 3.66668 66.9795 4.48907V22.3579C66.9795 23.1803 66.3087 23.847 65.4813 23.847H51.9981C51.1707 23.847 50.5 23.1803 50.5 22.3579V4.48907ZM53.4963 5.97815V20.8689H63.9832V5.97815H53.4963Z" fill="black"/>
<path fill-rule="evenodd" clip-rule="evenodd" d="M70.0274 10.8011C70.2436 10.0073 71.0663 9.53796 71.865 9.75286L77.893 11.3749C78.6902 11.5894 79.1623 12.4047 78.9486 13.1976L73.9079 31.896C73.6937 32.6903 72.8723 33.1617 72.0731 32.9489L60.5988 29.893C59.7996 29.6801 59.3253 28.8636 59.5395 28.0692C59.7536 27.2749 60.5751 26.8035 61.3743 27.0163L71.4015 29.6868L75.6677 13.8614L71.082 12.6275C70.2834 12.4126 69.8112 11.5949 70.0274 10.8011Z" fill="black"/>
<path fill-rule="evenodd" clip-rule="evenodd" d="M98.7149 22.8153C100.686 20.067 104.178 18 110 18C115.822 18 119.313 20.067 121.285 22.8153C123.19 25.4714 123.494 28.5158 123.5 30.2004C123.506 31.8943 122.086 33 120.63 33H99.3701C97.9141 33 96.4939 31.8943 96.5 30.2004C96.5061 28.5158 96.8096 25.4714 98.7149 22.8153ZM99.5027 30H120.497C120.466 28.5719 120.159 26.3925 118.847 24.5639C117.535 22.7348 115.032 21 110 21C104.968 21 102.465 22.7348 101.153 24.5639C99.8409 26.3925 99.5337 28.5719 99.5027 30Z" fill="black"/>
<path fill-rule="evenodd" clip-rule="evenodd" d="M110 12C111.657 12 113 10.6569 113 9C113 7.34315 111.657 6 110 6C108.343 6 107 7.34315 107 9C107 10.6569 108.343 12 110 12ZM110 15C113.314 15 116 12.3137 116 9C116 5.68629 113.314 3 110 3C106.686 3 104 5.68629 104 9C104 12.3137 106.686 15 110 15Z" fill="black"/>
<path fill-rule="evenodd" clip-rule="evenodd" d="M145.5 6C143.015 6 141 8.01472 141 10.5V25.5C141 27.9853 143.015 30 145.5 30H166.5C168.985 30 171 27.9853 171 25.5V10.5C171 8.01472 168.985 6 166.5 6H145.5ZM145.238 9.02276C145.323 9.0078 145.411 9 145.5 9H166.5C166.589 9 166.677 9.0078 166.762 9.02276L156 16.1973L145.238 9.02276ZM144 11.8028V25.5C144 26.3284 144.672 27 145.5 27H166.5C167.328 27 168 26.3284 168 25.5V11.8028L156.832 19.2481C156.328 19.584 155.672 19.584 155.168 19.2481L144 11.8028Z" fill="black"/>
<path fill-rule="evenodd" clip-rule="evenodd" d="M3 61.5C3 59.0147 5.01472 57 7.5 57H17.8944C19.399 57 20.8041 57.752 21.6387 59.0038L24.3575 63.082C24.6357 63.4993 25.104 63.75 25.6056 63.75H28.5C30.9853 63.75 33 65.7647 33 68.25V76.5C33 78.9853 30.9853 81 28.5 81H7.5C5.01472 81 3 78.9853 3 76.5V61.5Z" fill="#315CFD"/>
<path d="M51.9981 54C51.1707 54 50.5 54.667 50.5 55.4898V73.3679C50.5 74.1907 51.1707 74.8578 51.9981 74.8578H65.4812C66.3086 74.8578 66.9794 74.1907 66.9794 73.3679V55.4898C66.9794 54.667 66.3086 54 65.4812 54H51.9981Z" fill="#315CFD"/>
<path fill-rule="evenodd" clip-rule="evenodd" d="M70.0276 61.8041C70.2436 61.0104 71.0662 60.5413 71.8648 60.7563L77.8928 62.3792C78.69 62.5938 79.1623 63.4091 78.9487 64.2018L73.9116 82.8964C73.6976 83.6906 72.8763 84.1618 72.0771 83.9488L60.6029 80.8913C59.8037 80.6784 59.3293 79.8619 59.5433 79.0677C59.7573 78.2735 60.5787 77.8023 61.3779 78.0153L71.4049 80.6871L75.668 64.865L71.0824 63.6304C70.2838 63.4154 69.8115 62.5977 70.0276 61.8041Z" fill="#315CFD"/>
<path fill-rule="evenodd" clip-rule="evenodd" d="M98.7149 73.8153C100.686 71.067 104.178 69 110 69C115.822 69 119.313 71.067 121.285 73.8153C123.19 76.4714 123.494 79.5158 123.5 81.2004C123.506 82.8943 122.086 84 120.63 84H99.3701C97.9141 84 96.4939 82.8943 96.5 81.2004C96.5061 79.5158 96.8096 76.4714 98.7149 73.8153Z" fill="#315CFD"/>
<path fill-rule="evenodd" clip-rule="evenodd" d="M110 66C113.314 66 116 63.3137 116 60C116 56.6863 113.314 54 110 54C106.686 54 104 56.6863 104 60C104 63.3137 106.686 66 110 66Z" fill="#315CFD"/>
<path d="M142.467 58.1754C143.267 57.4453 144.332 57 145.5 57H166.5C167.668 57 168.733 57.4453 169.533 58.1754L156 67.1972L142.467 58.1754Z" fill="#315CFD"/>
<path d="M141.049 60.8353C141.017 61.0522 141 61.2742 141 61.5V76.5C141 78.9853 143.015 81 145.5 81H166.5C168.985 81 171 78.9853 171 76.5V61.5C171 61.2742 170.983 61.0522 170.951 60.8353L156.832 70.2481C156.328 70.584 155.672 70.584 155.168 70.2481L141.049 60.8353Z" fill="#315CFD"/>
</svg>
