<svg width="126" height="58" viewBox="0 0 126 58" fill="none" xmlns="http://www.w3.org/2000/svg">
<path d="M12 18V15V18Z" fill="#A2A2A2"/>
<path d="M12 18V15" stroke="#A2A2A2" stroke-width="1.5" stroke-linecap="round" stroke-linejoin="round"/>
<path d="M10.07 2.81997L3.14002 8.36997C2.36002 8.98997 1.86002 10.3 2.03002 11.28L3.36002 19.24C3.60002 20.66 4.96002 21.81 6.40002 21.81H17.6C19.03 21.81 20.4 20.65 20.64 19.24L21.97 11.28C22.13 10.3 21.63 8.98997 20.86 8.36997L13.93 2.82997C12.86 1.96997 11.13 1.96997 10.07 2.81997Z" stroke="#A2A2A2" stroke-width="1.5" stroke-linecap="round" stroke-linejoin="round"/>
<path d="M36 12.61H53" stroke="#A2A2A2" stroke-width="1.5" stroke-miterlimit="10" stroke-linecap="round" stroke-linejoin="round"/>
<path d="M53 10.28V17.43C52.97 20.28 52.19 21 49.22 21H39.78C36.76 21 36 20.25 36 17.27V10.28C36 7.57999 36.63 6.70999 39 6.56999C39.24 6.55999 39.5 6.54999 39.78 6.54999H49.22C52.24 6.54999 53 7.29999 53 10.28Z" stroke="#A2A2A2" stroke-width="1.5" stroke-linecap="round" stroke-linejoin="round"/>
<path d="M56 6.73V13.72C56 16.42 55.37 17.29 53 17.43V10.28C53 7.3 52.24 6.55 49.22 6.55H39.78C39.5 6.55 39.24 6.56 39 6.57C39.03 3.72 39.81 3 42.78 3H52.22C55.24 3 56 3.75 56 6.73Z" stroke="#A2A2A2" stroke-width="1.5" stroke-linecap="round" stroke-linejoin="round"/>
<path d="M39.25 17.81H40.97" stroke="#A2A2A2" stroke-width="1.5" stroke-miterlimit="10" stroke-linecap="round" stroke-linejoin="round"/>
<path d="M43.11 17.81H46.55" stroke="#A2A2A2" stroke-width="1.5" stroke-miterlimit="10" stroke-linecap="round" stroke-linejoin="round"/>
<path d="M80.1601 10.87C80.0601 10.86 79.9401 10.86 79.8301 10.87C77.4501 10.79 75.5601 8.84 75.5601 6.44C75.5601 3.99 77.5401 2 80.0001 2C82.4501 2 84.4401 3.99 84.4401 6.44C84.4301 8.84 82.5401 10.79 80.1601 10.87Z" stroke="#A2A2A2" stroke-width="1.5" stroke-linecap="round" stroke-linejoin="round"/>
<path d="M75.16 14.56C72.74 16.18 72.74 18.82 75.16 20.43C77.91 22.27 82.42 22.27 85.17 20.43C87.59 18.81 87.59 16.17 85.17 14.56C82.43 12.73 77.92 12.73 75.16 14.56Z" stroke="#A2A2A2" stroke-width="1.5" stroke-linecap="round" stroke-linejoin="round"/>
<path d="M114.16 10.87C114.06 10.86 113.94 10.86 113.83 10.87C111.45 10.79 109.56 8.84 109.56 6.44C109.56 3.99 111.54 2 114 2C116.45 2 118.44 3.99 118.44 6.44C118.43 8.84 116.54 10.79 114.16 10.87Z" stroke="#A2A2A2" stroke-width="1.5" stroke-linecap="round" stroke-linejoin="round"/>
<path d="M109.16 14.56C106.74 16.18 106.74 18.82 109.16 20.43C111.91 22.27 116.42 22.27 119.17 20.43C121.59 18.81 121.59 16.17 119.17 14.56C116.43 12.73 111.92 12.73 109.16 14.56Z" stroke="#A2A2A2" stroke-width="1.5" stroke-linecap="round" stroke-linejoin="round"/>
<path d="M12 52V49Z" fill="#1DA1FA"/>
<path d="M12 52V49" stroke="#1DA1FA" stroke-width="1.5" stroke-linecap="round" stroke-linejoin="round"/>
<path d="M10.07 36.82L3.14002 42.37C2.36002 42.99 1.86002 44.3 2.03002 45.28L3.36002 53.24C3.60002 54.66 4.96002 55.81 6.40002 55.81H17.6C19.03 55.81 20.4 54.65 20.64 53.24L21.97 45.28C22.13 44.3 21.63 42.99 20.86 42.37L13.93 36.83C12.86 35.97 11.13 35.97 10.07 36.82Z" stroke="#1DA1FA" stroke-width="1.5" stroke-linecap="round" stroke-linejoin="round"/>
<path d="M36 46.61H53" stroke="#1DA1FA" stroke-width="1.5" stroke-miterlimit="10" stroke-linecap="round" stroke-linejoin="round"/>
<path d="M53 44.28V51.43C52.97 54.28 52.19 55 49.22 55H39.78C36.76 55 36 54.25 36 51.27V44.28C36 41.58 36.63 40.71 39 40.57C39.24 40.56 39.5 40.55 39.78 40.55H49.22C52.24 40.55 53 41.3 53 44.28Z" stroke="#1DA1FA" stroke-width="1.5" stroke-linecap="round" stroke-linejoin="round"/>
<path d="M56 40.73V47.72C56 50.42 55.37 51.29 53 51.43V44.28C53 41.3 52.24 40.55 49.22 40.55H39.78C39.5 40.55 39.24 40.56 39 40.57C39.03 37.72 39.81 37 42.78 37H52.22C55.24 37 56 37.75 56 40.73Z" stroke="#1DA1FA" stroke-width="1.5" stroke-linecap="round" stroke-linejoin="round"/>
<path d="M39.25 51.81H40.97" stroke="#1DA1FA" stroke-width="1.5" stroke-miterlimit="10" stroke-linecap="round" stroke-linejoin="round"/>
<path d="M43.11 51.81H46.55" stroke="#1DA1FA" stroke-width="1.5" stroke-miterlimit="10" stroke-linecap="round" stroke-linejoin="round"/>
<path d="M80.1601 44.87C80.0601 44.86 79.9401 44.86 79.8301 44.87C77.4501 44.79 75.5601 42.84 75.5601 40.44C75.5601 37.99 77.5401 36 80.0001 36C82.4501 36 84.4401 37.99 84.4401 40.44C84.4301 42.84 82.5401 44.79 80.1601 44.87Z" stroke="#1DA1FA" stroke-width="1.5" stroke-linecap="round" stroke-linejoin="round"/>
<path d="M75.16 48.56C72.74 50.18 72.74 52.82 75.16 54.43C77.91 56.27 82.42 56.27 85.17 54.43C87.59 52.81 87.59 50.17 85.17 48.56C82.43 46.73 77.92 46.73 75.16 48.56Z" stroke="#1DA1FA" stroke-width="1.5" stroke-linecap="round" stroke-linejoin="round"/>
<path d="M114.16 44.87C114.06 44.86 113.94 44.86 113.83 44.87C111.45 44.79 109.56 42.84 109.56 40.44C109.56 37.99 111.54 36 114 36C116.45 36 118.44 37.99 118.44 40.44C118.43 42.84 116.54 44.79 114.16 44.87Z" stroke="#1DA1FA" stroke-width="1.5" stroke-linecap="round" stroke-linejoin="round"/>
<path d="M109.16 48.56C106.74 50.18 106.74 52.82 109.16 54.43C111.91 56.27 116.42 56.27 119.17 54.43C121.59 52.81 121.59 50.17 119.17 48.56C116.43 46.73 111.92 46.73 109.16 48.56Z" stroke="#1DA1FA" stroke-width="1.5" stroke-linecap="round" stroke-linejoin="round"/>
</svg>
