<svg width="52" height="24" viewBox="0 0 52 24" fill="none" xmlns="http://www.w3.org/2000/svg">
<path d="M7 5C6.44772 5 6 5.44772 6 6C6 6.55228 6.44772 7 7 7H19C19.5523 7 20 6.55228 20 6C20 5.44772 19.5523 5 19 5H7Z" fill="black"/>
<path d="M7 9C6.44772 9 6 9.44771 6 10C6 10.5523 6.44772 11 7 11H13C13.5523 11 14 10.5523 14 10C14 9.44771 13.5523 9 13 9H7Z" fill="black"/>
<path d="M7 13C6.44772 13 6 13.4477 6 14C6 14.5523 6.44772 15 7 15H21C21.5523 15 22 14.5523 22 14C22 13.4477 21.5523 13 21 13H7Z" fill="black"/>
<path d="M6 18C6 17.4477 6.44772 17 7 17H17C17.5523 17 18 17.4477 18 18C18 18.5523 17.5523 19 17 19H7C6.44771 19 6 18.5523 6 18Z" fill="black"/>
<path fill-rule="evenodd" clip-rule="evenodd" d="M3 2C3.55228 2 4 2.44772 4 3V21C4 21.5523 3.55228 22 3 22C2.44772 22 2 21.5523 2 21V3C2 2.44772 2.44772 2 3 2Z" fill="black"/>
<path d="M35 5C34.4477 5 34 5.44772 34 6C34 6.55228 34.4477 7 35 7H47C47.5523 7 48 6.55228 48 6C48 5.44772 47.5523 5 47 5H35Z" fill="#ECECEC"/>
<path d="M35 9C34.4477 9 34 9.44771 34 10C34 10.5523 34.4477 11 35 11H41C41.5523 11 42 10.5523 42 10C42 9.44771 41.5523 9 41 9H35Z" fill="#ECECEC"/>
<path d="M35 13C34.4477 13 34 13.4477 34 14C34 14.5523 34.4477 15 35 15H49C49.5523 15 50 14.5523 50 14C50 13.4477 49.5523 13 49 13H35Z" fill="#ECECEC"/>
<path d="M34 18C34 17.4477 34.4477 17 35 17H45C45.5523 17 46 17.4477 46 18C46 18.5523 45.5523 19 45 19H35C34.4477 19 34 18.5523 34 18Z" fill="#ECECEC"/>
<path fill-rule="evenodd" clip-rule="evenodd" d="M31 2C31.5523 2 32 2.44772 32 3V21C32 21.5523 31.5523 22 31 22C30.4477 22 30 21.5523 30 21V3C30 2.44772 30.4477 2 31 2Z" fill="#ECECEC"/>
</svg>
