<svg width="574" height="574" viewBox="0 0 574 574" fill="none" xmlns="http://www.w3.org/2000/svg">
<path d="M173.34 151.466C173.34 151.466 234.889 198.173 328.459 110.839C411.558 33.2803 479.411 155.651 479.884 214.254C480.5 290.165 396.786 350.905 437.413 400.765C478.037 450.625 356.844 532.961 291.526 461.705C210.273 373.065 188.261 445.086 141.947 445.086C108.707 445.086 40.4621 362.491 86.5471 301.045C125.327 249.339 104.177 232.179 93.9351 214.254C79.1606 188.399 114.247 118.227 173.34 151.466Z" fill="#DEE9FF"/>
<path d="M420.439 254.682C423.747 255.912 427.361 255.994 430.801 255.202C445.213 251.896 494.768 243.136 486.158 281.537C484.282 289.155 455.26 331.823 496.59 347.397C499.62 348.553 502.822 349.185 506.063 349.263C518.789 349.525 544.007 346.52 554.56 335.778C567.311 322.799 553.381 328.953 553.381 328.953C553.381 328.953 504.911 350.105 487.789 327.664C485.885 325.167 484.671 321.54 484.325 318.418C483.722 313.006 486.125 305.854 489.282 299.626C493.556 291.198 514.07 253.288 469.528 242.244C459.268 239.801 444.364 237.607 425.15 245.697C413.94 250.416 416.423 253.189 420.439 254.682Z" fill="#BDD6F9"/>
<path d="M430.356 240.529L417.456 245.358C413.003 247.025 410.744 251.986 412.411 256.439L413.05 258.148C414.717 262.601 419.678 264.86 424.131 263.193L437.033 258.366C441.486 256.699 443.745 251.738 442.078 247.283L441.439 245.576C439.772 241.121 434.811 238.862 430.356 240.529Z" fill="#0E84E5"/>
<path d="M351.165 254.501L308.619 270.426C306.391 271.258 305.261 273.739 306.096 275.965L306.264 276.414C307.096 278.64 309.577 279.77 311.805 278.937L354.351 263.013C356.579 262.179 357.709 259.698 356.874 257.472L356.706 257.023C355.874 254.797 353.393 253.667 351.165 254.501Z" fill="white"/>
<path d="M363.041 286.229L320.493 302.152C318.267 302.986 317.137 305.466 317.971 307.693L318.137 308.142C318.972 310.368 321.452 311.497 323.679 310.663L366.226 294.741C368.453 293.906 369.582 291.426 368.75 289.2L368.582 288.751C367.75 286.524 365.267 285.395 363.041 286.229Z" fill="white"/>
<path d="M402.323 232.849L367.84 245.754C363.385 247.421 361.126 252.384 362.793 256.836L374.568 288.294C376.234 292.746 381.195 295.005 385.648 293.339L420.133 280.434C424.586 278.767 426.845 273.806 425.178 269.352L413.405 237.894C411.738 233.442 406.777 231.183 402.323 232.849Z" fill="#5895F9"/>
<path d="M371.403 241.1L336.917 254.007C332.465 255.674 330.206 260.635 331.872 265.09L345.919 302.619C347.586 307.072 352.547 309.331 356.999 307.664L391.484 294.759C395.937 293.093 398.196 288.132 396.529 283.677L382.483 246.148C380.816 241.693 375.855 239.434 371.403 241.1Z" fill="#699CFF"/>
<path d="M376.8 233.485L376.53 233.585C373.561 234.696 372.054 238.005 373.166 240.973L392.844 293.55C393.955 296.518 397.261 298.025 400.23 296.914L400.5 296.811C403.471 295.7 404.975 292.394 403.864 289.425L384.188 236.849C383.077 233.88 379.769 232.374 376.8 233.485Z" fill="#208AF2"/>
<path d="M25.1773 267.099C25.1773 267.099 94.4326 247.636 84.378 292.478C82.6318 299.573 57.4966 336.104 87.4364 353.643C93.8652 357.409 101.284 359.078 108.734 359.039C122.092 358.969 143.269 356.399 152.782 346.716C165.531 333.738 151.603 339.892 151.603 339.892C151.603 339.892 111.828 356.253 91.3659 343.211C84.3788 338.758 81.2118 330.136 83.1091 322.069C84.0789 318.064 85.5555 314.197 87.5037 310.565C91.9538 302.229 112.292 264.227 67.7501 253.183C57.4892 250.74 42.5861 248.546 23.37 256.635C4.15395 264.727 25.1773 267.099 25.1773 267.099Z" fill="#BDD6F9"/>
<path d="M162.094 329.857L149.193 334.687C144.74 336.354 142.481 341.315 144.147 345.769L144.787 347.477C146.454 351.932 151.415 354.191 155.869 352.522L168.77 347.694C173.223 346.028 175.482 341.067 173.816 336.612L173.176 334.904C171.509 330.45 166.548 328.191 162.094 329.857Z" fill="#0E84E5"/>
<path d="M183.891 308.632L164.771 315.788C160.318 317.455 158.058 322.416 159.725 326.87L168.945 351.503C170.612 355.958 175.573 358.217 180.027 356.55L199.147 349.394C203.6 347.727 205.859 342.766 204.193 338.312L194.973 313.679C193.306 309.224 188.345 306.965 183.891 308.632Z" fill="#5895F9"/>
<path d="M215.722 289.665L187.208 300.337C182.755 302.004 180.496 306.965 182.163 311.42L196.209 348.949C197.876 353.404 202.837 355.663 207.29 353.996L235.803 343.324C240.258 341.657 242.517 336.696 240.85 332.241L226.804 294.712C225.137 290.257 220.176 287.998 215.722 289.665Z" fill="#699CFF"/>
<path d="M221.763 281.893L221.492 281.994C218.522 283.105 217.017 286.414 218.128 289.382L237.804 341.958C238.915 344.927 242.224 346.434 245.192 345.323L245.463 345.22C248.431 344.109 249.938 340.802 248.827 337.832L229.149 285.257C228.038 282.289 224.731 280.782 221.763 281.893Z" fill="#208AF2"/>
<path d="M294.573 248.398C293.546 248.284 292.603 247.777 291.943 246.982C291.285 246.187 290.959 245.168 291.034 244.137L293.162 205.277C293.289 202.956 295.249 201.192 297.473 201.397L300.573 201.684C302.797 201.889 304.39 203.98 304.079 206.285L298.851 244.858C298.732 245.885 298.22 246.826 297.422 247.486C296.625 248.146 295.604 248.472 294.573 248.398Z" fill="#418DF9"/>
<path d="M276.203 251.748C275.883 251.842 275.549 251.873 275.217 251.838C274.887 251.801 274.565 251.701 274.274 251.541C273.98 251.383 273.724 251.168 273.515 250.908C273.306 250.649 273.15 250.35 273.056 250.032L265.459 225.859C265.237 225.172 265.299 224.424 265.627 223.782C265.957 223.138 266.527 222.653 267.215 222.431L269.181 221.837C269.52 221.738 269.874 221.712 270.223 221.757C270.571 221.802 270.905 221.919 271.207 222.101C271.508 222.281 271.769 222.523 271.971 222.81C272.174 223.097 272.316 223.423 272.386 223.768L278.017 248.536C278.175 249.2 278.074 249.901 277.738 250.498C277.402 251.092 276.855 251.539 276.203 251.748Z" fill="#418DF9"/>
<path d="M265.951 265.688C264.589 267.375 261.851 267.355 259.743 265.643L222.329 235.244C220.092 233.427 219.434 230.422 220.877 228.634L222.89 226.142C224.336 224.352 227.3 224.5 229.416 226.463L264.819 259.358C266.814 261.209 267.312 264.003 265.951 265.688Z" fill="#418DF9"/>
<path d="M283.246 344.207C284.21 344.58 284.991 345.312 285.426 346.249C285.862 347.186 285.916 348.256 285.579 349.232L273.597 386.259C272.882 388.471 270.536 389.674 268.437 388.908L265.512 387.84C263.415 387.073 262.408 384.644 263.298 382.497L278.203 346.538C278.583 345.575 279.317 344.796 280.258 344.361C281.196 343.926 282.267 343.871 283.246 344.207Z" fill="#418DF9"/>
<path d="M301.862 345.661C302.195 345.651 302.527 345.708 302.838 345.827C303.148 345.946 303.433 346.124 303.675 346.354C303.917 346.581 304.111 346.856 304.247 347.159C304.382 347.463 304.458 347.791 304.466 348.125L305.639 373.436C305.675 374.158 305.427 374.863 304.944 375.4C304.462 375.939 303.785 376.263 303.066 376.302L301.012 376.374C300.659 376.382 300.311 376.318 299.985 376.185C299.659 376.052 299.366 375.853 299.12 375.601C298.876 375.349 298.685 375.05 298.562 374.719C298.441 374.389 298.388 374.039 298.406 373.688L299.288 348.305C299.306 347.621 299.583 346.969 300.058 346.479C300.536 345.989 301.18 345.698 301.862 345.661Z" fill="#418DF9"/>
<path d="M315.335 334.8C317.082 333.517 319.724 334.236 321.323 336.43L349.736 375.375C351.432 377.702 351.302 380.775 349.449 382.136L346.866 384.033C345.013 385.394 342.182 384.494 340.638 382.054L314.808 341.21C313.357 338.912 313.589 336.083 315.335 334.8Z" fill="#418DF9"/>
</svg>
