<svg width="54" height="45" viewBox="0 0 54 45" fill="none" xmlns="http://www.w3.org/2000/svg">
<path fill-rule="evenodd" clip-rule="evenodd" d="M13.6924 6.91706C13.3055 7.28838 12.6945 7.28838 12.3076 6.91706L11.6152 6.2526C10.8048 5.47487 9.70994 5 8.5 5C6.01472 5 4 7.01472 4 9.5C4 11.8826 5.28979 13.8501 7.15176 15.4666C9.01532 17.0844 11.2434 18.1574 12.5746 18.7051C12.853 18.8196 13.147 18.8196 13.4254 18.7051C14.7566 18.1574 16.9847 17.0844 18.8482 15.4666C20.7102 13.85 22 11.8826 22 9.5C22 7.01472 19.9853 5 17.5 5C16.2901 5 15.1952 5.47487 14.3848 6.2526L13.6924 6.91706ZM13 4.80957C11.8321 3.6888 10.2465 3 8.5 3C4.91015 3 2 5.91015 2 9.5C2 15.8683 8.97034 19.385 11.8138 20.5547C12.5796 20.8697 13.4204 20.8697 14.1862 20.5547C17.0297 19.385 24 15.8682 24 9.5C24 5.91015 21.0899 3 17.5 3C15.7535 3 14.1679 3.6888 13 4.80957Z" fill="#ECECEC"/>
<path d="M42 4.80957C40.8321 3.6888 39.2465 3 37.5 3C33.9101 3 31 5.91015 31 9.5C31 15.8683 37.9703 19.385 40.8138 20.5547C41.5796 20.8697 42.4204 20.8697 43.1862 20.5547C46.0297 19.385 53 15.8682 53 9.5C53 5.91015 50.0899 3 46.5 3C44.7535 3 43.1679 3.6888 42 4.80957Z" fill="#ECECEC"/>
<path fill-rule="evenodd" clip-rule="evenodd" d="M12.6924 27.9171C12.3055 28.2884 11.6945 28.2884 11.3076 27.9171L10.6152 27.2526C9.80477 26.4749 8.70994 26 7.5 26C5.01472 26 3 28.0147 3 30.5C3 32.8826 4.28979 34.8501 6.15176 36.4666C8.01532 38.0844 10.2434 39.1574 11.5746 39.7051C11.853 39.8196 12.147 39.8196 12.4254 39.7051C13.7566 39.1574 15.9847 38.0844 17.8482 36.4666C19.7102 34.85 21 32.8826 21 30.5C21 28.0147 18.9853 26 16.5 26C15.2901 26 14.1952 26.4749 13.3848 27.2526L12.6924 27.9171ZM12 25.8096C10.8321 24.6888 9.24649 24 7.5 24C3.91015 24 1 26.9101 1 30.5C1 36.8683 7.97034 40.385 10.8138 41.5547C11.5796 41.8697 12.4204 41.8697 13.1862 41.5547C16.0297 40.385 23 36.8682 23 30.5C23 26.9101 20.0899 24 16.5 24C14.7535 24 13.1679 24.6888 12 25.8096Z" fill="black"/>
<path d="M41 25.8096C39.8321 24.6888 38.2465 24 36.5 24C32.9101 24 30 26.9101 30 30.5C30 36.8683 36.9703 40.385 39.8138 41.5547C40.5796 41.8697 41.4204 41.8697 42.1862 41.5547C45.0297 40.385 52 36.8682 52 30.5C52 26.9101 49.0899 24 45.5 24C43.7535 24 42.1679 24.6888 41 25.8096Z" fill="black"/>
</svg>
