<svg width="19" height="19" viewBox="0 0 19 19" fill="none" xmlns="http://www.w3.org/2000/svg">
<g opacity="0.2">
<rect opacity="0.01" width="19" height="19" fill="black"/>
<rect opacity="0.01" width="19" height="19" fill="black"/>
<path fill-rule="evenodd" clip-rule="evenodd" d="M1.58331 9.49992C1.58331 5.12766 5.12773 1.58325 9.49998 1.58325C11.5996 1.58325 13.6132 2.41733 15.0979 3.90199C16.5826 5.38665 17.4166 7.40029 17.4166 9.49992C17.4166 13.8722 13.8722 17.4166 9.49998 17.4166C5.12773 17.4166 1.58331 13.8722 1.58331 9.49992ZM10.9171 3.33284C10.4523 3.22546 9.97702 3.1697 9.49998 3.16659C6.00218 3.16659 3.16665 6.00212 3.16665 9.49992C3.16785 9.88218 3.20228 10.2636 3.26956 10.6399C4.29873 11.0674 5.95331 11.5424 7.0379 10.6953C7.78998 10.1333 7.78998 9.49992 7.78998 8.42325C7.72159 7.52444 7.89086 6.62345 8.28081 5.81075C8.63677 5.24261 9.14391 4.78481 9.7454 4.48867C9.78169 4.46599 9.81798 4.44359 9.85416 4.42127L9.85419 4.42125C10.0074 4.3267 10.1587 4.23337 10.2996 4.1245C10.5674 3.9154 10.7794 3.64348 10.9171 3.33284ZM3.95831 12.5083C4.47561 12.6427 5.00721 12.7145 5.54165 12.722C6.43591 12.7466 7.31214 12.4675 8.02748 11.9303C9.38123 10.8695 9.38123 9.50784 9.38123 8.41534C9.32119 7.78302 9.42195 7.14578 9.67415 6.56284C9.90326 6.25085 10.2085 6.00282 10.5608 5.84242C10.8125 5.69533 11.0557 5.5341 11.2891 5.3595C11.7811 4.97089 12.1632 4.4606 12.3975 3.87909C13.5113 4.44897 14.4314 5.336 15.0416 6.42825C13.9096 6.58659 12.3025 6.95867 11.9858 8.43117C11.9143 8.78299 11.8772 9.14092 11.875 9.49992C11.9006 9.90118 11.8215 10.3022 11.6454 10.6637L11.5662 10.7983C11.0516 11.6533 10.4737 12.627 11.2575 13.9649C11.3525 14.1312 11.4554 14.2895 11.5583 14.4478L11.5583 14.4478L11.5583 14.4478C11.769 14.6912 11.9111 14.9863 11.97 15.3028C11.1914 15.646 10.3508 15.8265 9.49998 15.8333C7.18371 15.8217 5.05852 14.5466 3.95831 12.5083ZM12.9041 13.6008C13.0989 13.8849 13.266 14.1871 13.4029 14.5033L13.3791 14.5428C15.38 13.0095 16.2712 10.4292 15.6433 7.98784C14.8833 8.04325 13.6562 8.20159 13.5296 8.7795C13.4814 9.04062 13.4575 9.30564 13.4583 9.57117C13.4886 10.239 13.3411 10.9028 13.0308 11.4949L12.9516 11.6295C12.4529 12.4212 12.3421 12.6745 12.6508 13.2128C12.73 13.3474 12.8171 13.4741 12.9041 13.6008Z" fill="black"/>
</g>
</svg>
