<svg width="70" height="39" viewBox="0 0 70 39" fill="none" xmlns="http://www.w3.org/2000/svg">
<rect opacity="0.01" x="25" width="20" height="20" fill="black"/>
<path fill-rule="evenodd" clip-rule="evenodd" d="M26.6667 9.99996C26.6667 5.39759 30.3976 1.66663 35 1.66663C37.2102 1.66663 39.3298 2.5446 40.8926 4.1074C42.4554 5.67021 43.3334 7.78982 43.3334 9.99996C43.3334 14.6023 39.6024 18.3333 35 18.3333C30.3976 18.3333 26.6667 14.6023 26.6667 9.99996ZM28.3334 9.99996C28.3334 13.6819 31.3181 16.6666 35 16.6666C36.7681 16.6666 38.4638 15.9642 39.7141 14.714C40.9643 13.4638 41.6667 11.7681 41.6667 9.99996C41.6667 6.31806 38.6819 3.33329 35 3.33329C31.3181 3.33329 28.3334 6.31806 28.3334 9.99996Z" fill="black"/>
<path d="M35 14.1667C35.4603 14.1667 35.8334 13.7936 35.8334 13.3333C35.8334 12.8731 35.4603 12.5 35 12.5C34.5398 12.5 34.1667 12.8731 34.1667 13.3333C34.1667 13.7936 34.5398 14.1667 35 14.1667Z" fill="black"/>
<path d="M35 5.83337C34.5398 5.83337 34.1667 6.20647 34.1667 6.66671V10.8334C34.1667 11.2936 34.5398 11.6667 35 11.6667C35.4603 11.6667 35.8334 11.2936 35.8334 10.8334V6.66671C35.8334 6.20647 35.4603 5.83337 35 5.83337Z" fill="black"/>
<rect opacity="0.01" x="50" width="20" height="20" fill="black"/>
<path fill-rule="evenodd" clip-rule="evenodd" d="M67.1 12.675L65.6 11.1667V7.45003C65.6413 4.59615 63.5712 2.1491 60.75 1.71669C59.1481 1.50574 57.533 1.99483 56.3173 3.05899C55.1015 4.12316 54.4029 5.65933 54.4 7.27503V11.1667L52.9 12.675C52.5148 13.0666 52.4015 13.6508 52.6124 14.1581C52.8233 14.6653 53.3174 14.9969 53.8667 15H56.6667V15.2834C56.7477 17.0448 58.2383 18.4087 60 18.3334C61.7616 18.4087 63.2523 17.0448 63.3333 15.2834V15H66.1333C66.6826 14.9969 67.1767 14.6653 67.3876 14.1581C67.5985 13.6508 67.4852 13.0666 67.1 12.675ZM61.6667 15.2834C61.5707 16.1161 60.8362 16.7257 60 16.6667C59.1638 16.7257 58.4293 16.1161 58.3333 15.2834V15H61.6667V15.2834ZM55.575 12.35L54.5917 13.3334H65.4083L64.4167 12.35C64.1047 12.0355 63.9308 11.6097 63.9333 11.1667V7.41669C63.976 5.39844 62.5259 3.6569 60.5333 3.33336C59.4017 3.18568 58.2623 3.54211 57.4167 4.30836C56.5597 5.05617 56.0676 6.13768 56.0667 7.27503V11.1667C56.067 11.6109 55.89 12.0369 55.575 12.35Z" fill="black"/>
<rect opacity="0.01" width="20" height="20" fill="black"/>
<path fill-rule="evenodd" clip-rule="evenodd" d="M1.66669 9.99996C1.66669 5.39759 5.39765 1.66663 10 1.66663C12.2102 1.66663 14.3298 2.5446 15.8926 4.1074C17.4554 5.67021 18.3334 7.78982 18.3334 9.99996C18.3334 14.6023 14.6024 18.3333 10 18.3333C5.39765 18.3333 1.66669 14.6023 1.66669 9.99996ZM3.33335 9.99996C3.33335 13.6819 6.31812 16.6666 10 16.6666C11.7681 16.6666 13.4638 15.9642 14.7141 14.714C15.9643 13.4638 16.6667 11.7681 16.6667 9.99996C16.6667 6.31806 13.6819 3.33329 10 3.33329C6.31812 3.33329 3.33335 6.31806 3.33335 9.99996Z" fill="black"/>
<path d="M12.5 9.16663H10.8334V7.49996C10.8334 7.03972 10.4603 6.66663 10 6.66663C9.53978 6.66663 9.16669 7.03972 9.16669 7.49996V9.16663H7.50002C7.03978 9.16663 6.66669 9.53972 6.66669 9.99996C6.66669 10.4602 7.03978 10.8333 7.50002 10.8333H9.16669V12.5C9.16669 12.9602 9.53978 13.3333 10 13.3333C10.4603 13.3333 10.8334 12.9602 10.8334 12.5V10.8333H12.5C12.9603 10.8333 13.3334 10.4602 13.3334 9.99996C13.3334 9.53972 12.9603 9.16663 12.5 9.16663Z" fill="black"/>
<g opacity="0.2">
<rect opacity="0.01" x="25" y="19" width="20" height="20" fill="black"/>
<path fill-rule="evenodd" clip-rule="evenodd" d="M26.6667 29C26.6667 24.3976 30.3976 20.6666 35 20.6666C37.2102 20.6666 39.3298 21.5446 40.8926 23.1074C42.4554 24.6702 43.3334 26.7898 43.3334 29C43.3334 33.6023 39.6024 37.3333 35 37.3333C30.3976 37.3333 26.6667 33.6023 26.6667 29ZM28.3334 29C28.3334 32.6819 31.3181 35.6666 35 35.6666C36.7681 35.6666 38.4638 34.9642 39.7141 33.714C40.9643 32.4638 41.6667 30.7681 41.6667 29C41.6667 25.3181 38.6819 22.3333 35 22.3333C31.3181 22.3333 28.3334 25.3181 28.3334 29Z" fill="black"/>
<path d="M35 33.1667C35.4603 33.1667 35.8334 32.7936 35.8334 32.3333C35.8334 31.8731 35.4603 31.5 35 31.5C34.5398 31.5 34.1667 31.8731 34.1667 32.3333C34.1667 32.7936 34.5398 33.1667 35 33.1667Z" fill="black"/>
<path d="M35 24.8334C34.5398 24.8334 34.1667 25.2065 34.1667 25.6667V29.8334C34.1667 30.2936 34.5398 30.6667 35 30.6667C35.4603 30.6667 35.8334 30.2936 35.8334 29.8334V25.6667C35.8334 25.2065 35.4603 24.8334 35 24.8334Z" fill="black"/>
</g>
<g opacity="0.2">
<rect opacity="0.01" x="50" y="19" width="20" height="20" fill="black"/>
<path fill-rule="evenodd" clip-rule="evenodd" d="M67.1 31.675L65.6 30.1667V26.45C65.6413 23.5961 63.5712 21.1491 60.75 20.7167C59.1481 20.5057 57.533 20.9948 56.3173 22.059C55.1015 23.1232 54.4029 24.6593 54.4 26.275V30.1667L52.9 31.675C52.5148 32.0666 52.4015 32.6508 52.6124 33.1581C52.8233 33.6653 53.3174 33.9969 53.8667 34H56.6667V34.2834C56.7477 36.0448 58.2383 37.4087 60 37.3334C61.7616 37.4087 63.2523 36.0448 63.3333 34.2834V34H66.1333C66.6826 33.9969 67.1767 33.6653 67.3876 33.1581C67.5985 32.6508 67.4852 32.0666 67.1 31.675ZM61.6667 34.2834C61.5707 35.1161 60.8362 35.7257 60 35.6667C59.1638 35.7257 58.4293 35.1161 58.3333 34.2834V34H61.6667V34.2834ZM55.575 31.35L54.5917 32.3334H65.4083L64.4167 31.35C64.1047 31.0355 63.9308 30.6097 63.9333 30.1667V26.4167C63.976 24.3984 62.5259 22.6569 60.5333 22.3334C59.4017 22.1857 58.2623 22.5421 57.4167 23.3084C56.5597 24.0562 56.0676 25.1377 56.0667 26.275V30.1667C56.067 30.6109 55.89 31.0369 55.575 31.35Z" fill="black"/>
</g>
<g opacity="0.2">
<rect opacity="0.01" y="19" width="20" height="20" fill="black"/>
<path fill-rule="evenodd" clip-rule="evenodd" d="M1.66669 29C1.66669 24.3976 5.39765 20.6666 10 20.6666C12.2102 20.6666 14.3298 21.5446 15.8926 23.1074C17.4554 24.6702 18.3334 26.7898 18.3334 29C18.3334 33.6023 14.6024 37.3333 10 37.3333C5.39765 37.3333 1.66669 33.6023 1.66669 29ZM3.33335 29C3.33335 32.6819 6.31812 35.6666 10 35.6666C11.7681 35.6666 13.4638 34.9642 14.7141 33.714C15.9643 32.4638 16.6667 30.7681 16.6667 29C16.6667 25.3181 13.6819 22.3333 10 22.3333C6.31812 22.3333 3.33335 25.3181 3.33335 29Z" fill="black"/>
<path d="M12.5 28.1666H10.8334V26.5C10.8334 26.0397 10.4603 25.6666 10 25.6666C9.53978 25.6666 9.16669 26.0397 9.16669 26.5V28.1666H7.50002C7.03978 28.1666 6.66669 28.5397 6.66669 29C6.66669 29.4602 7.03978 29.8333 7.50002 29.8333H9.16669V31.5C9.16669 31.9602 9.53978 32.3333 10 32.3333C10.4603 32.3333 10.8334 31.9602 10.8334 31.5V29.8333H12.5C12.9603 29.8333 13.3334 29.4602 13.3334 29C13.3334 28.5397 12.9603 28.1666 12.5 28.1666Z" fill="black"/>
</g>
</svg>
