<svg width="43" height="20" viewBox="0 0 43 20" fill="none" xmlns="http://www.w3.org/2000/svg">
<path d="M16.6667 1.66669H3.33332C2.41666 1.66669 1.67499 2.41669 1.67499 3.33335L1.66666 18.3334L4.99999 15H16.6667C17.5833 15 18.3333 14.25 18.3333 13.3334V3.33335C18.3333 2.41669 17.5833 1.66669 16.6667 1.66669ZM14.1667 11.6667H5.83332C5.37499 11.6667 4.99999 11.2917 4.99999 10.8334C4.99999 10.375 5.37499 10 5.83332 10H14.1667C14.625 10 15 10.375 15 10.8334C15 11.2917 14.625 11.6667 14.1667 11.6667ZM14.1667 9.16669H5.83332C5.37499 9.16669 4.99999 8.79169 4.99999 8.33335C4.99999 7.87502 5.37499 7.50002 5.83332 7.50002H14.1667C14.625 7.50002 15 7.87502 15 8.33335C15 8.79169 14.625 9.16669 14.1667 9.16669ZM14.1667 6.66669H5.83332C5.37499 6.66669 4.99999 6.29169 4.99999 5.83335C4.99999 5.37502 5.37499 5.00002 5.83332 5.00002H14.1667C14.625 5.00002 15 5.37502 15 5.83335C15 6.29169 14.625 6.66669 14.1667 6.66669Z" fill="#DADEE6"/>
<path d="M39.6667 1.66669H26.3333C25.4167 1.66669 24.675 2.41669 24.675 3.33335L24.6667 18.3334L28 15H39.6667C40.5833 15 41.3333 14.25 41.3333 13.3334V3.33335C41.3333 2.41669 40.5833 1.66669 39.6667 1.66669ZM37.1667 11.6667H28.8333C28.375 11.6667 28 11.2917 28 10.8334C28 10.375 28.375 10 28.8333 10H37.1667C37.625 10 38 10.375 38 10.8334C38 11.2917 37.625 11.6667 37.1667 11.6667ZM37.1667 9.16669H28.8333C28.375 9.16669 28 8.79169 28 8.33335C28 7.87502 28.375 7.50002 28.8333 7.50002H37.1667C37.625 7.50002 38 7.87502 38 8.33335C38 8.79169 37.625 9.16669 37.1667 9.16669ZM37.1667 6.66669H28.8333C28.375 6.66669 28 6.29169 28 5.83335C28 5.37502 28.375 5.00002 28.8333 5.00002H37.1667C37.625 5.00002 38 5.37502 38 5.83335C38 6.29169 37.625 6.66669 37.1667 6.66669Z" fill="#F59E0B"/>
</svg>
