<svg width="48" height="21" viewBox="0 0 48 21" fill="none" xmlns="http://www.w3.org/2000/svg">
<path fill-rule="evenodd" clip-rule="evenodd" d="M46.017 5.81438C46.3158 6.72542 46.3158 7.85203 46.3158 10.1053C46.3158 12.3585 46.3158 13.4851 46.017 14.3961C45.4221 16.21 43.9995 17.6326 42.1856 18.2275C41.2746 18.5263 40.148 18.5263 37.8947 18.5263C35.6415 18.5263 34.5149 18.5263 33.6039 18.2275C31.79 17.6326 30.3674 16.21 29.7725 14.3961C29.4737 13.4851 29.4737 12.3585 29.4737 10.1053C29.4737 7.85203 29.4737 6.72542 29.7725 5.81438C30.3674 4.00047 31.79 2.5779 33.6039 1.983C34.5149 1.6842 35.6415 1.6842 37.8947 1.6842C40.148 1.6842 41.2746 1.6842 42.1856 1.983C43.9995 2.5779 45.4221 4.00047 46.017 5.81438ZM42.2632 7.57894C42.2632 7.02666 41.8154 6.57894 41.2632 6.57894H34.6126C34.0604 6.57894 33.6126 7.02666 33.6126 7.57894C33.6126 8.13123 34.0604 8.57894 34.6126 8.57894H41.2632C41.8154 8.57894 42.2632 8.13123 42.2632 7.57894ZM42.2632 12.6316C42.2632 12.0793 41.8154 11.6316 41.2632 11.6316H34.6126C34.0604 11.6316 33.6126 12.0793 33.6126 12.6316C33.6126 13.1839 34.0604 13.6316 34.6126 13.6316H41.2632C41.8154 13.6316 42.2632 13.1839 42.2632 12.6316Z" fill="#ECECEC"/>
<path fill-rule="evenodd" clip-rule="evenodd" d="M18.2275 5.81438C18.5263 6.72542 18.5263 7.85203 18.5263 10.1053C18.5263 12.3585 18.5263 13.4851 18.2275 14.3961C17.6326 16.21 16.2101 17.6326 14.3961 18.2275C13.4851 18.5263 12.3585 18.5263 10.1053 18.5263C7.85205 18.5263 6.72543 18.5263 5.8144 18.2275C4.00049 17.6326 2.57792 16.21 1.98301 14.3961C1.68422 13.4851 1.68422 12.3585 1.68422 10.1053C1.68422 7.85203 1.68422 6.72542 1.98301 5.81438C2.57792 4.00047 4.00049 2.5779 5.8144 1.983C6.72543 1.6842 7.85205 1.6842 10.1053 1.6842C12.3585 1.6842 13.4851 1.6842 14.3961 1.983C16.2101 2.5779 17.6326 4.00047 18.2275 5.81438ZM14.4737 7.57894C14.4737 7.02666 14.026 6.57894 13.4737 6.57894H6.82318C6.27089 6.57894 5.82318 7.02666 5.82318 7.57894C5.82318 8.13123 6.27089 8.57894 6.82318 8.57894H13.4737C14.026 8.57894 14.4737 8.13123 14.4737 7.57894ZM14.4737 12.6316C14.4737 12.0793 14.026 11.6316 13.4737 11.6316H6.82318C6.27089 11.6316 5.82318 12.0793 5.82318 12.6316C5.82318 13.1839 6.27089 13.6316 6.82318 13.6316H13.4737C14.026 13.6316 14.4737 13.1839 14.4737 12.6316Z" fill="black"/>
</svg>
