<svg width="38" height="17" viewBox="0 0 38 17" fill="none" xmlns="http://www.w3.org/2000/svg">
<path d="M8.33333 0C3.73333 0 0 3.73333 0 8.33333C0 12.9333 3.73333 16.6667 8.33333 16.6667C12.9333 16.6667 16.6667 12.9333 16.6667 8.33333C16.6667 3.73333 12.9333 0 8.33333 0ZM12.5 9.16667H9.16667V12.5H7.5V9.16667H4.16667V7.5H7.5V4.16667H9.16667V7.5H12.5V9.16667Z" fill="#C7CED9"/>
<path d="M29.3333 0C24.7333 0 21 3.73333 21 8.33333C21 12.9333 24.7333 16.6667 29.3333 16.6667C33.9333 16.6667 37.6667 12.9333 37.6667 8.33333C37.6667 3.73333 33.9333 0 29.3333 0ZM33.5 9.16667H30.1667V12.5H28.5V9.16667H25.1667V7.5H28.5V4.16667H30.1667V7.5H33.5V9.16667Z" fill="black"/>
</svg>
