<svg width="36" height="36" viewBox="0 0 36 36" fill="none" xmlns="http://www.w3.org/2000/svg">
<path fill-rule="evenodd" clip-rule="evenodd" d="M33 18C33 26.2843 26.2843 33 18 33C9.71573 33 3 26.2843 3 18C3 9.71573 9.71573 3 18 3C26.2843 3 33 9.71573 33 18ZM16.5 12C16.5 11.1716 17.1716 10.5 18 10.5C18.8284 10.5 19.5 11.1716 19.5 12V16.5H24C24.8284 16.5 25.5 17.1716 25.5 18C25.5 18.8284 24.8284 19.5 24 19.5H19.5V24C19.5 24.8284 18.8284 25.5 18 25.5C17.1716 25.5 16.5 24.8284 16.5 24V19.5H12C11.1716 19.5 10.5 18.8284 10.5 18C10.5 17.1716 11.1716 16.5 12 16.5H16.5V12Z" fill="white"/>
</svg>
