<svg width="59" height="126" viewBox="0 0 59 126" fill="none" xmlns="http://www.w3.org/2000/svg">
<path d="M6.93837 17H17.0557C17.6979 17 18.1825 16.8434 18.5095 16.5301C18.8365 16.2168 19 15.7526 19 15.1375V11.9341C19 11.724 18.9862 11.5463 18.9586 11.4011C18.935 11.256 18.8936 11.1261 18.8345 11.0115C18.7794 10.8968 18.7025 10.7746 18.6041 10.6447L16.6598 8.12894C16.4313 7.83095 16.2244 7.60172 16.0393 7.44126C15.8541 7.27698 15.6472 7.16237 15.4187 7.09742C15.1902 7.03247 14.8987 7 14.5441 7H9.45589C9.09737 7 8.80386 7.03247 8.57535 7.09742C8.35078 7.16237 8.14591 7.27698 7.96074 7.44126C7.77557 7.60172 7.56874 7.83095 7.34023 8.12894L5.39595 10.6447C5.29745 10.7746 5.21866 10.8968 5.15956 11.0115C5.10046 11.1261 5.0591 11.256 5.03546 11.4011C5.01182 11.5463 5 11.724 5 11.9341V15.1375C5 15.7526 5.1635 16.2168 5.4905 16.5301C5.8175 16.8434 6.30013 17 6.93837 17ZM11.997 13.4928C11.7016 13.4928 11.4435 13.426 11.2229 13.2923C11.0062 13.1547 10.8388 12.979 10.7206 12.765C10.6024 12.5473 10.5433 12.3181 10.5433 12.0774V12.0372C10.5433 11.9074 10.5019 11.7908 10.4192 11.6877C10.3364 11.5807 10.2104 11.5272 10.0409 11.5272H6.4656C6.35922 11.5272 6.29422 11.4928 6.27058 11.4241C6.24694 11.3553 6.2627 11.2846 6.31786 11.212L8.46897 8.40401C8.59899 8.23591 8.74279 8.11748 8.90038 8.04871C9.06191 7.97612 9.24117 7.93983 9.43816 7.93983H14.5559C14.7608 7.93983 14.942 7.97612 15.0996 8.04871C15.2572 8.11748 15.399 8.23591 15.5251 8.40401L17.6821 11.212C17.7294 11.2846 17.7412 11.3553 17.7176 11.4241C17.6979 11.4928 17.6349 11.5272 17.5285 11.5272H13.9591C13.7896 11.5272 13.6636 11.5807 13.5808 11.6877C13.502 11.7908 13.4626 11.9074 13.4626 12.0372V12.0774C13.4626 12.3181 13.4016 12.5473 13.2794 12.765C13.1612 12.979 12.9918 13.1547 12.7712 13.2923C12.5545 13.426 12.2965 13.4928 11.997 13.4928Z" fill="#7F7F7F"/>
<path d="M40.9384 17H51.0557C51.6979 17 52.1825 16.8434 52.5095 16.5301C52.8365 16.2168 53 15.7526 53 15.1375V11.9341C53 11.724 52.9862 11.5463 52.9586 11.4011C52.935 11.256 52.8936 11.1261 52.8345 11.0115C52.7794 10.8968 52.7025 10.7746 52.6041 10.6447L50.6598 8.12894C50.4313 7.83095 50.2244 7.60172 50.0393 7.44126C49.8541 7.27698 49.6472 7.16237 49.4187 7.09742C49.1902 7.03247 48.8987 7 48.5441 7H43.4559C43.0974 7 42.8039 7.03247 42.5753 7.09742C42.3508 7.16237 42.1459 7.27698 41.9607 7.44126C41.7756 7.60172 41.5687 7.83095 41.3402 8.12894L39.3959 10.6447C39.2975 10.7746 39.2187 10.8968 39.1596 11.0115C39.1005 11.1261 39.0591 11.256 39.0355 11.4011C39.0118 11.5463 39 11.724 39 11.9341V15.1375C39 15.7526 39.1635 16.2168 39.4905 16.5301C39.8175 16.8434 40.3001 17 40.9384 17ZM45.997 13.4928C45.7016 13.4928 45.4435 13.426 45.2229 13.2923C45.0062 13.1547 44.8388 12.979 44.7206 12.765C44.6024 12.5473 44.5433 12.3181 44.5433 12.0774V12.0372C44.5433 11.9074 44.5019 11.7908 44.4192 11.6877C44.3364 11.5807 44.2104 11.5272 44.0409 11.5272H40.4656C40.3592 11.5272 40.2942 11.4928 40.2706 11.4241C40.2469 11.3553 40.2627 11.2846 40.3179 11.212L42.469 8.40401C42.599 8.23591 42.7428 8.11748 42.9004 8.04871C43.0619 7.97612 43.2412 7.93983 43.4382 7.93983H48.5559C48.7608 7.93983 48.942 7.97612 49.0996 8.04871C49.2572 8.11748 49.399 8.23591 49.5251 8.40401L51.6821 11.212C51.7294 11.2846 51.7412 11.3553 51.7176 11.4241C51.6979 11.4928 51.6349 11.5272 51.5285 11.5272H47.9591C47.7896 11.5272 47.6636 11.5807 47.5808 11.6877C47.502 11.7908 47.4626 11.9074 47.4626 12.0372V12.0774C47.4626 12.3181 47.4016 12.5473 47.2794 12.765C47.1612 12.979 46.9918 13.1547 46.7712 13.2923C46.5545 13.426 46.2965 13.4928 45.997 13.4928Z" fill="#F8FAFC"/>
<path d="M13.3484 53C13.604 53 13.8222 52.9031 14.0028 52.7092C14.1835 52.5197 14.3355 52.2663 14.4589 51.949L18.8149 40.5467C18.8722 40.3969 18.9163 40.2581 18.9471 40.1303C18.978 40.0025 18.9934 39.8813 18.9934 39.7668C18.9934 39.5332 18.9251 39.3481 18.7885 39.2115C18.6519 39.0705 18.4668 39 18.2332 39C18.1231 39 18.0019 39.0176 17.8697 39.0529C17.7375 39.0837 17.5965 39.1256 17.4466 39.1785L6.00472 43.5609C5.71829 43.6711 5.47812 43.8165 5.28423 43.9972C5.09474 44.1778 5 44.396 5 44.6516C5 44.9644 5.10576 45.1958 5.31728 45.3456C5.5288 45.491 5.7954 45.6122 6.11709 45.7092L9.54769 46.7602C9.77683 46.8307 9.96852 46.8593 10.1228 46.8461C10.277 46.8285 10.4356 46.7447 10.5987 46.5949L17.9556 39.7734C17.9997 39.7337 18.046 39.7139 18.0944 39.7139C18.1473 39.7139 18.1936 39.7315 18.2332 39.7668C18.2685 39.802 18.2861 39.8461 18.2861 39.899C18.2861 39.9474 18.2641 39.9937 18.22 40.0378L11.4249 47.4145C11.2839 47.5644 11.2024 47.7186 11.1804 47.8772C11.1627 48.0359 11.187 48.232 11.2531 48.4655L12.271 51.8234C12.3724 52.1627 12.498 52.4426 12.6478 52.6629C12.7976 52.8876 13.0312 53 13.3484 53Z" fill="#7F7F7F"/>
<path d="M47.3484 53C47.604 53 47.8222 52.9031 48.0028 52.7092C48.1835 52.5197 48.3355 52.2663 48.4589 51.949L52.8149 40.5467C52.8722 40.3969 52.9163 40.2581 52.9471 40.1303C52.978 40.0025 52.9934 39.8813 52.9934 39.7668C52.9934 39.5332 52.9251 39.3481 52.7885 39.2115C52.6519 39.0705 52.4668 39 52.2332 39C52.1231 39 52.0019 39.0176 51.8697 39.0529C51.7375 39.0837 51.5965 39.1256 51.4466 39.1785L40.0047 43.5609C39.7183 43.6711 39.4781 43.8165 39.2842 43.9972C39.0947 44.1778 39 44.396 39 44.6516C39 44.9644 39.1058 45.1958 39.3173 45.3456C39.5288 45.491 39.7954 45.6122 40.1171 45.7092L43.5477 46.7602C43.7768 46.8307 43.9685 46.8593 44.1228 46.8461C44.277 46.8285 44.4356 46.7447 44.5987 46.5949L51.9556 39.7734C51.9997 39.7337 52.046 39.7139 52.0944 39.7139C52.1473 39.7139 52.1936 39.7315 52.2332 39.7668C52.2685 39.802 52.2861 39.8461 52.2861 39.899C52.2861 39.9474 52.2641 39.9937 52.22 40.0378L45.4249 47.4145C45.2839 47.5644 45.2024 47.7186 45.1804 47.8772C45.1627 48.0359 45.187 48.232 45.2531 48.4655L46.271 51.8234C46.3724 52.1627 46.498 52.4426 46.6478 52.6629C46.7976 52.8876 47.0312 53 47.3484 53Z" fill="#F8FAFC"/>
<path d="M6.34766 85.7637C6.50716 85.8913 6.68717 85.9368 6.8877 85.9004C7.08822 85.8639 7.30241 85.7637 7.53027 85.5996L11.085 82.9814L14.6465 85.5996C14.8743 85.7637 15.0885 85.8639 15.2891 85.9004C15.4896 85.9368 15.6696 85.8913 15.8291 85.7637C15.9886 85.6452 16.0843 85.4857 16.1162 85.2852C16.1527 85.0892 16.1253 84.8568 16.0342 84.5879L14.626 80.4111L18.2148 77.834C18.4473 77.6699 18.609 77.499 18.7002 77.3213C18.7913 77.139 18.805 76.9521 18.7412 76.7607C18.6774 76.5739 18.5566 76.4349 18.3789 76.3438C18.2012 76.248 17.9688 76.2025 17.6816 76.207L13.2861 76.2344L11.9463 72.0371C11.8597 71.7637 11.7435 71.5563 11.5977 71.415C11.4564 71.2692 11.2855 71.1963 11.085 71.1963C10.889 71.1963 10.7181 71.2692 10.5723 71.415C10.431 71.5563 10.3171 71.7637 10.2305 72.0371L8.89062 76.2344L4.49512 76.207C4.20801 76.2025 3.97559 76.248 3.79785 76.3438C3.62012 76.4349 3.49935 76.5739 3.43555 76.7607C3.37174 76.9521 3.38542 77.139 3.47656 77.3213C3.56771 77.499 3.72949 77.6699 3.96191 77.834L7.55078 80.4111L6.14258 84.5879C6.05143 84.8568 6.02181 85.0892 6.05371 85.2852C6.09017 85.4857 6.18815 85.6452 6.34766 85.7637Z" fill="#7F7F7F"/>
<path d="M40.3477 85.7637C40.5072 85.8913 40.6872 85.9368 40.8877 85.9004C41.0882 85.8639 41.3024 85.7637 41.5303 85.5996L45.085 82.9814L48.6465 85.5996C48.8743 85.7637 49.0885 85.8639 49.2891 85.9004C49.4896 85.9368 49.6696 85.8913 49.8291 85.7637C49.9886 85.6452 50.0843 85.4857 50.1162 85.2852C50.1527 85.0892 50.1253 84.8568 50.0342 84.5879L48.626 80.4111L52.2148 77.834C52.4473 77.6699 52.609 77.499 52.7002 77.3213C52.7913 77.139 52.805 76.9521 52.7412 76.7607C52.6774 76.5739 52.5566 76.4349 52.3789 76.3438C52.2012 76.248 51.9688 76.2025 51.6816 76.207L47.2861 76.2344L45.9463 72.0371C45.8597 71.7637 45.7435 71.5563 45.5977 71.415C45.4564 71.2692 45.2855 71.1963 45.085 71.1963C44.889 71.1963 44.7181 71.2692 44.5723 71.415C44.431 71.5563 44.3171 71.7637 44.2305 72.0371L42.8906 76.2344L38.4951 76.207C38.208 76.2025 37.9756 76.248 37.7979 76.3438C37.6201 76.4349 37.4993 76.5739 37.4355 76.7607C37.3717 76.9521 37.3854 77.139 37.4766 77.3213C37.5677 77.499 37.7295 77.6699 37.9619 77.834L41.5508 80.4111L40.1426 84.5879C40.0514 84.8568 40.0218 85.0892 40.0537 85.2852C40.0902 85.4857 40.1882 85.6452 40.3477 85.7637Z" fill="#F8FAFC"/>
<path d="M7.90137 119.456H15.3936C16.0999 119.456 16.64 119.271 17.0137 118.902C17.3874 118.538 17.5742 118.005 17.5742 117.303V110.925H5.7207V117.303C5.7207 118.009 5.90755 118.545 6.28125 118.909C6.65495 119.274 7.19499 119.456 7.90137 119.456ZM9.44629 113.529C9.28223 113.529 9.14779 113.477 9.04297 113.372C8.94271 113.267 8.89258 113.131 8.89258 112.962V112.75C8.89258 112.581 8.94271 112.447 9.04297 112.347C9.14779 112.242 9.28223 112.189 9.44629 112.189H13.8555C14.0195 112.189 14.154 112.242 14.2588 112.347C14.3636 112.447 14.416 112.581 14.416 112.75V112.962C14.416 113.131 14.3636 113.267 14.2588 113.372C14.154 113.477 14.0195 113.529 13.8555 113.529H9.44629ZM5.9873 109.927H17.3145C17.7246 109.927 18.0322 109.813 18.2373 109.585C18.4469 109.357 18.5518 109.04 18.5518 108.635V107.985C18.5518 107.58 18.4469 107.263 18.2373 107.035C18.0322 106.807 17.7246 106.693 17.3145 106.693H5.9873C5.59538 106.693 5.29004 106.807 5.07129 107.035C4.85254 107.263 4.74316 107.58 4.74316 107.985V108.635C4.74316 109.04 4.8457 109.357 5.05078 109.585C5.26042 109.813 5.57259 109.927 5.9873 109.927Z" fill="#7F7F7F"/>
<path d="M41.9014 119.456H49.3936C50.0999 119.456 50.64 119.271 51.0137 118.902C51.3874 118.538 51.5742 118.005 51.5742 117.303V110.925H39.7207V117.303C39.7207 118.009 39.9076 118.545 40.2812 118.909C40.6549 119.274 41.195 119.456 41.9014 119.456ZM43.4463 113.529C43.2822 113.529 43.1478 113.477 43.043 113.372C42.9427 113.267 42.8926 113.131 42.8926 112.962V112.75C42.8926 112.581 42.9427 112.447 43.043 112.347C43.1478 112.242 43.2822 112.189 43.4463 112.189H47.8555C48.0195 112.189 48.154 112.242 48.2588 112.347C48.3636 112.447 48.416 112.581 48.416 112.75V112.962C48.416 113.131 48.3636 113.267 48.2588 113.372C48.154 113.477 48.0195 113.529 47.8555 113.529H43.4463ZM39.9873 109.927H51.3145C51.7246 109.927 52.0322 109.813 52.2373 109.585C52.4469 109.357 52.5518 109.04 52.5518 108.635V107.985C52.5518 107.58 52.4469 107.263 52.2373 107.035C52.0322 106.807 51.7246 106.693 51.3145 106.693H39.9873C39.5954 106.693 39.29 106.807 39.0713 107.035C38.8525 107.263 38.7432 107.58 38.7432 107.985V108.635C38.7432 109.04 38.8457 109.357 39.0508 109.585C39.2604 109.813 39.5726 109.927 39.9873 109.927Z" fill="#F8FAFC"/>
</svg>
