<svg width="24" height="24" viewBox="0 0 24 24" fill="none" xmlns="http://www.w3.org/2000/svg">
<path d="M11.4268 12.7891C11.7048 12.7891 11.9919 12.641 12.2881 12.3447L18.2422 6.43164C17.9779 6.19466 17.5107 6.07617 16.8408 6.07617H5.81445C5.22656 6.07617 4.81413 6.18555 4.57715 6.4043L10.5654 12.3447C10.8571 12.641 11.1442 12.7891 11.4268 12.7891ZM3.92773 16.918L8.83594 12.0508L3.93457 7.21777C3.80697 7.43652 3.74316 7.79427 3.74316 8.29102V15.8516C3.74316 16.3483 3.80469 16.7038 3.92773 16.918ZM5.98535 18.0732H17.0117C17.6087 18.0732 18.0303 17.957 18.2764 17.7246L13.2793 12.7617L12.8555 13.1924C12.3906 13.639 11.9144 13.8623 11.4268 13.8623C10.9346 13.8623 10.4561 13.639 9.99121 13.1924L9.56738 12.7686L4.57715 17.7246C4.85514 17.957 5.32454 18.0732 5.98535 18.0732ZM18.9053 16.9111C19.0238 16.6924 19.083 16.3392 19.083 15.8516V8.29102C19.083 7.79883 19.0215 7.44564 18.8984 7.23145L14.0107 12.0508L18.9053 16.9111Z" fill="#F8FAFC"/>
</svg>
