<svg width="49" height="24" viewBox="0 0 49 24" fill="none" xmlns="http://www.w3.org/2000/svg">
<path fill-rule="evenodd" clip-rule="evenodd" d="M7 15.9013V18.9951L12.0622 16.0038L12.5913 15.9951C14.6952 15.9607 16.5886 15.7488 18.0044 15.5334C18.8979 15.3975 19.5187 14.7739 19.6536 13.9909C19.8406 12.9049 20 11.5289 20 10C20 8.47108 19.8406 7.09512 19.6536 6.00907C19.5187 5.22608 18.8979 4.60252 18.0044 4.46657C16.4559 4.23096 14.3383 4 12 4C9.66167 4 7.54408 4.23096 5.99562 4.46657C5.10214 4.60252 4.4813 5.22608 4.34643 6.00907C4.15936 7.09512 4 8.47108 4 10C4 11.5289 4.15936 12.9049 4.34643 13.9909C4.46355 14.6709 4.93854 15.2158 5.63108 15.4461L7 15.9013ZM2.37546 5.66957C2.66565 3.98488 4.00472 2.74648 5.69477 2.48932C7.31411 2.24293 9.53559 2 12 2C14.4644 2 16.6859 2.24293 18.3052 2.48932C19.9953 2.74648 21.3344 3.98488 21.6245 5.66957C21.8268 6.84372 22 8.33525 22 10C22 11.6647 21.8268 13.1563 21.6245 14.3304C21.3344 16.0151 19.9953 17.2535 18.3052 17.5107C16.8238 17.7361 14.8384 17.9586 12.6241 17.9949L6.50873 21.6085C5.84211 22.0024 5 21.5219 5 20.7476V17.344C3.64656 16.8939 2.62456 15.7766 2.37546 14.3304C2.17321 13.1563 2 11.6647 2 10C2 8.33525 2.17321 6.84372 2.37546 5.66957Z" fill="#030303"/>
<path fill-rule="evenodd" clip-rule="evenodd" d="M7 7C6.44772 7 6 7.44772 6 8C6 8.55228 6.44772 9 7 9H17C17.5523 9 18 8.55228 18 8C18 7.44772 17.5523 7 17 7H7ZM7 11C6.44772 11 6 11.4477 6 12C6 12.5523 6.44772 13 7 13H11C11.5523 13 12 12.5523 12 12C12 11.4477 11.5523 11 11 11H7Z" fill="#191919"/>
<path fill-rule="evenodd" clip-rule="evenodd" d="M32 15.9013V18.9951L37.0622 16.0038L37.5913 15.9951C39.6952 15.9607 41.5886 15.7488 43.0044 15.5334C43.8979 15.3975 44.5187 14.7739 44.6536 13.9909C44.8406 12.9049 45 11.5289 45 10C45 8.47108 44.8406 7.09512 44.6536 6.00907C44.5187 5.22608 43.8979 4.60252 43.0044 4.46657C41.4559 4.23096 39.3383 4 37 4C34.6617 4 32.5441 4.23096 30.9956 4.46657C30.1021 4.60252 29.4813 5.22608 29.3464 6.00907C29.1594 7.09512 29 8.47108 29 10C29 11.5289 29.1594 12.9049 29.3464 13.9909C29.4635 14.6709 29.9385 15.2158 30.6311 15.4461L32 15.9013ZM27.3755 5.66957C27.6656 3.98488 29.0047 2.74648 30.6948 2.48932C32.3141 2.24293 34.5356 2 37 2C39.4644 2 41.6859 2.24293 43.3052 2.48932C44.9953 2.74648 46.3344 3.98488 46.6245 5.66957C46.8268 6.84372 47 8.33525 47 10C47 11.6647 46.8268 13.1563 46.6245 14.3304C46.3344 16.0151 44.9953 17.2535 43.3052 17.5107C41.8238 17.7361 39.8384 17.9586 37.6241 17.9949L31.5087 21.6085C30.8421 22.0024 30 21.5219 30 20.7476V17.344C28.6466 16.8939 27.6246 15.7766 27.3755 14.3304C27.1732 13.1563 27 11.6647 27 10C27 8.33525 27.1732 6.84372 27.3755 5.66957Z" fill="#ECECEC"/>
<path fill-rule="evenodd" clip-rule="evenodd" d="M32 7C31.4477 7 31 7.44772 31 8C31 8.55228 31.4477 9 32 9H42C42.5523 9 43 8.55228 43 8C43 7.44772 42.5523 7 42 7H32ZM32 11C31.4477 11 31 11.4477 31 12C31 12.5523 31.4477 13 32 13H36C36.5523 13 37 12.5523 37 12C37 11.4477 36.5523 11 36 11H32Z" fill="#ECECEC"/>
</svg>
