<svg width="48" height="24" viewBox="0 0 48 24" fill="none" xmlns="http://www.w3.org/2000/svg">
<path d="M6 10C4.9 10 4 10.9 4 12C4 13.1 4.9 14 6 14C7.1 14 8 13.1 8 12C8 10.9 7.1 10 6 10ZM18 10C16.9 10 16 10.9 16 12C16 13.1 16.9 14 18 14C19.1 14 20 13.1 20 12C20 10.9 19.1 10 18 10ZM12 10C10.9 10 10 10.9 10 12C10 13.1 10.9 14 12 14C13.1 14 14 13.1 14 12C14 10.9 13.1 10 12 10Z" fill="#C7CED9"/>
<path d="M30 10C28.9 10 28 10.9 28 12C28 13.1 28.9 14 30 14C31.1 14 32 13.1 32 12C32 10.9 31.1 10 30 10ZM42 10C40.9 10 40 10.9 40 12C40 13.1 40.9 14 42 14C43.1 14 44 13.1 44 12C44 10.9 43.1 10 42 10ZM36 10C34.9 10 34 10.9 34 12C34 13.1 34.9 14 36 14C37.1 14 38 13.1 38 12C38 10.9 37.1 10 36 10Z" fill="black"/>
</svg>
