<svg width="54" height="24" viewBox="0 0 54 24" fill="none" xmlns="http://www.w3.org/2000/svg">
<path d="M7.34375 18.6484H16.4453C17.1953 18.6484 17.776 18.4323 18.1875 18C18.6042 17.5729 18.8125 16.9427 18.8125 16.1094V7.85156L17.2734 9.38281V15.9766C17.2734 16.3568 17.1849 16.6406 17.0078 16.8281C16.8307 17.0156 16.612 17.1094 16.3516 17.1094H7.4375C7.07292 17.1094 6.79427 17.0156 6.60156 16.8281C6.40885 16.6406 6.3125 16.3568 6.3125 15.9766V7.28125C6.3125 6.90104 6.40885 6.61719 6.60156 6.42969C6.79427 6.23698 7.07292 6.14062 7.4375 6.14062H14.1094L15.6406 4.60938H7.34375C6.5 4.60938 5.85938 4.82292 5.42188 5.25C4.98958 5.67708 4.77344 6.3099 4.77344 7.14844V16.1094C4.77344 16.9427 4.98958 17.5729 5.42188 18C5.85938 18.4323 6.5 18.6484 7.34375 18.6484ZM10.2891 13.4219L11.8828 12.75L18.9922 5.64844L17.7969 4.46875L10.6953 11.5703L9.99219 13.1172C9.95573 13.2057 9.97396 13.2891 10.0469 13.3672C10.1198 13.4401 10.2005 13.4583 10.2891 13.4219ZM19.5625 5.08594L20.1484 4.47656C20.2943 4.32031 20.3698 4.14583 20.375 3.95312C20.3854 3.76042 20.3151 3.59115 20.1641 3.44531L19.9609 3.23438C19.8307 3.10417 19.6693 3.04688 19.4766 3.0625C19.2839 3.07812 19.1146 3.15625 18.9688 3.29688L18.3672 3.89062L19.5625 5.08594Z" fill="#F8FAFC"/>
<path d="M37.3438 18.6484H46.4453C47.1953 18.6484 47.776 18.4323 48.1875 18C48.6042 17.5729 48.8125 16.9427 48.8125 16.1094V7.85156L47.2734 9.38281V15.9766C47.2734 16.3568 47.1849 16.6406 47.0078 16.8281C46.8307 17.0156 46.612 17.1094 46.3516 17.1094H37.4375C37.0729 17.1094 36.7943 17.0156 36.6016 16.8281C36.4089 16.6406 36.3125 16.3568 36.3125 15.9766V7.28125C36.3125 6.90104 36.4089 6.61719 36.6016 6.42969C36.7943 6.23698 37.0729 6.14062 37.4375 6.14062H44.1094L45.6406 4.60938H37.3438C36.5 4.60938 35.8594 4.82292 35.4219 5.25C34.9896 5.67708 34.7734 6.3099 34.7734 7.14844V16.1094C34.7734 16.9427 34.9896 17.5729 35.4219 18C35.8594 18.4323 36.5 18.6484 37.3438 18.6484ZM40.2891 13.4219L41.8828 12.75L48.9922 5.64844L47.7969 4.46875L40.6953 11.5703L39.9922 13.1172C39.9557 13.2057 39.974 13.2891 40.0469 13.3672C40.1198 13.4401 40.2005 13.4583 40.2891 13.4219ZM49.5625 5.08594L50.1484 4.47656C50.2943 4.32031 50.3698 4.14583 50.375 3.95312C50.3854 3.76042 50.3151 3.59115 50.1641 3.44531L49.9609 3.23438C49.8307 3.10417 49.6693 3.04688 49.4766 3.0625C49.2839 3.07812 49.1146 3.15625 48.9688 3.29688L48.3672 3.89062L49.5625 5.08594Z" fill="#7F7F7F"/>
</svg>
