<svg width="261" height="36" viewBox="0 0 261 36" fill="none" xmlns="http://www.w3.org/2000/svg">
<path d="M19.5009 2.91783C19.5009 2.05928 18.8298 1.36328 18.0019 1.36328C17.174 1.36328 16.5029 2.05928 16.5029 2.91783V5.35667C16.5029 6.21523 17.174 6.91123 18.0019 6.91123C18.8298 6.91123 19.5009 6.21523 19.5009 5.35667V2.91783Z" fill="white"/>
<path d="M22.9228 15.014C22.9228 17.733 20.7186 19.9372 17.9996 19.9372C15.2806 19.9372 13.0764 17.733 13.0764 15.014C13.0764 12.295 15.2806 10.0908 17.9996 10.0908C20.7186 10.0908 22.9228 12.295 22.9228 15.014Z" fill="white"/>
<path d="M17.9997 21.7381C13.9946 21.7381 11.5928 23.2289 10.2366 25.211C8.92584 27.1267 8.71707 29.3223 8.7129 30.5373C8.70871 31.759 9.68566 32.5564 10.6873 32.5564H25.312C26.3137 32.5564 27.2906 31.759 27.2864 30.5373C27.2822 29.3223 27.0735 27.1267 25.7627 25.211C24.4065 23.2289 22.0047 21.7381 17.9997 21.7381Z" fill="white"/>
<path d="M11.7354 17.1714C11.7354 19.4169 9.91505 21.2372 7.66953 21.2372C5.424 21.2372 3.60365 19.4169 3.60365 17.1714C3.60365 14.9258 5.424 13.1055 7.66953 13.1055C9.91505 13.1055 11.7354 14.9258 11.7354 17.1714Z" fill="white"/>
<path d="M8.55185 24.3499C8.89998 23.8411 9.3047 23.3589 9.77241 22.9147C9.1395 22.7914 8.4405 22.7245 7.66956 22.7245C4.36199 22.7245 2.37838 23.9557 1.25835 25.5926C0.175865 27.1747 0.0034536 28.988 1.10989e-05 29.9914C-0.0034505 31.0003 0.803368 31.6589 1.63056 31.6589H6.82802C6.74294 31.4066 6.69626 31.13 6.69728 30.8329C6.70235 29.354 6.95646 26.6816 8.55185 24.3499Z" fill="white"/>
<path d="M29.1737 31.6589C29.2587 31.4066 29.3054 31.13 29.3044 30.8329C29.2993 29.3541 29.0452 26.6816 27.4498 24.3499C27.1016 23.8409 26.6967 23.3586 26.2289 22.9143C26.8612 22.7913 27.5596 22.7245 28.3297 22.7245C31.6373 22.7245 33.6209 23.9557 34.7409 25.5926C35.8234 27.1747 35.9958 28.988 35.9993 29.9914C36.0027 31.0003 35.1959 31.6589 34.3687 31.6589H29.1737Z" fill="white"/>
<path d="M28.3297 21.2372C30.5752 21.2372 32.3956 19.4169 32.3956 17.1714C32.3956 14.9258 30.5752 13.1055 28.3297 13.1055C26.0842 13.1055 24.2638 14.9258 24.2638 17.1714C24.2638 19.4169 26.0842 21.2372 28.3297 21.2372Z" fill="white"/>
<path d="M26.2714 4.51831C26.8567 5.10369 26.8391 6.07039 26.2321 6.67748L24.5075 8.402C23.9004 9.00909 22.9338 9.02668 22.3484 8.4413C21.763 7.85591 21.7806 6.88922 22.3877 6.28213L24.1122 4.55761C24.7193 3.95052 25.686 3.93292 26.2714 4.51831Z" fill="white"/>
<path d="M11.8924 4.55773C11.2854 3.95064 10.3187 3.93305 9.73327 4.51843C9.14789 5.10382 9.16548 6.07051 9.77257 6.6776L11.4971 8.40212C12.1042 9.00921 13.0709 9.02681 13.6563 8.44142C14.2416 7.85604 14.2241 6.88934 13.617 6.28225L11.8924 4.55773Z" fill="white"/>
<path d="M64.5009 2.91783C64.5009 2.05928 63.8298 1.36328 63.0019 1.36328C62.174 1.36328 61.5029 2.05928 61.5029 2.91783V5.35667C61.5029 6.21523 62.174 6.91123 63.0019 6.91123C63.8298 6.91123 64.5009 6.21523 64.5009 5.35667V2.91783Z" fill="#191A23"/>
<path d="M67.9228 15.014C67.9228 17.733 65.7186 19.9372 62.9996 19.9372C60.2806 19.9372 58.0764 17.733 58.0764 15.014C58.0764 12.295 60.2806 10.0908 62.9996 10.0908C65.7186 10.0908 67.9228 12.295 67.9228 15.014Z" fill="#191A23"/>
<path d="M62.9997 21.7381C58.9946 21.7381 56.5928 23.2289 55.2366 25.211C53.9258 27.1267 53.7171 29.3223 53.7129 30.5373C53.7087 31.759 54.6857 32.5564 55.6873 32.5564H70.312C71.3137 32.5564 72.2906 31.759 72.2864 30.5373C72.2822 29.3223 72.0735 27.1267 70.7627 25.211C69.4065 23.2289 67.0047 21.7381 62.9997 21.7381Z" fill="#191A23"/>
<path d="M56.7354 17.1714C56.7354 19.4169 54.9151 21.2372 52.6695 21.2372C50.424 21.2372 48.6036 19.4169 48.6036 17.1714C48.6036 14.9258 50.424 13.1055 52.6695 13.1055C54.9151 13.1055 56.7354 14.9258 56.7354 17.1714Z" fill="#191A23"/>
<path d="M53.5519 24.3499C53.9 23.8411 54.3047 23.3589 54.7724 22.9147C54.1395 22.7914 53.4405 22.7245 52.6696 22.7245C49.362 22.7245 47.3784 23.9557 46.2584 25.5926C45.1759 27.1747 45.0035 28.988 45 29.9914C44.9965 31.0003 45.8034 31.6589 46.6306 31.6589H51.828C51.7429 31.4066 51.6963 31.13 51.6973 30.8329C51.7024 29.354 51.9565 26.6816 53.5519 24.3499Z" fill="#191A23"/>
<path d="M74.1737 31.6589C74.2587 31.4066 74.3054 31.13 74.3044 30.8329C74.2993 29.3541 74.0452 26.6816 72.4498 24.3499C72.1016 23.8409 71.6967 23.3586 71.2289 22.9143C71.8612 22.7913 72.5596 22.7245 73.3297 22.7245C76.6373 22.7245 78.6209 23.9557 79.7409 25.5926C80.8234 27.1747 80.9958 28.988 80.9993 29.9914C81.0027 31.0003 80.1959 31.6589 79.3687 31.6589H74.1737Z" fill="#191A23"/>
<path d="M73.3297 21.2372C75.5752 21.2372 77.3956 19.4169 77.3956 17.1714C77.3956 14.9258 75.5752 13.1055 73.3297 13.1055C71.0842 13.1055 69.2638 14.9258 69.2638 17.1714C69.2638 19.4169 71.0842 21.2372 73.3297 21.2372Z" fill="#191A23"/>
<path d="M71.2714 4.51831C71.8567 5.10369 71.8391 6.07039 71.2321 6.67748L69.5075 8.402C68.9004 9.00909 67.9338 9.02668 67.3484 8.4413C66.763 7.85591 66.7806 6.88922 67.3877 6.28213L69.1122 4.55761C69.7193 3.95052 70.686 3.93292 71.2714 4.51831Z" fill="#191A23"/>
<path d="M56.8924 4.55773C56.2854 3.95064 55.3187 3.93305 54.7333 4.51843C54.1479 5.10382 54.1655 6.07051 54.7726 6.6776L56.4971 8.40212C57.1042 9.00921 58.0709 9.02681 58.6563 8.44142C59.2416 7.85604 59.2241 6.88934 58.617 6.28225L56.8924 4.55773Z" fill="#191A23"/>
<path d="M91.2549 21.5001C90.4877 22.1442 90 23.1104 90 24.1905C90 26.1296 91.572 27.7016 93.5111 27.7016C95.4503 27.7016 97.0223 26.1296 97.0223 24.1905C97.0223 22.4627 95.7743 21.0265 94.1307 20.7338C93.9573 19.8493 93.8665 18.9353 93.8665 18C93.8665 10.1943 100.194 3.86648 108 3.86648C110.164 3.86648 112.214 4.35281 114.048 5.22213C114.671 5.5176 115.422 5.42683 115.91 4.93883C116.594 4.25312 116.471 3.10673 115.604 2.67533C113.313 1.53673 110.731 0.896484 108 0.896484C98.554 0.896484 90.8965 8.55399 90.8965 18C90.8965 19.1995 91.02 20.3703 91.2549 21.5001Z" fill="white"/>
<path d="M108 32.1335C115.806 32.1335 122.134 25.8057 122.134 18C122.134 16.0414 121.735 14.1758 121.015 12.4799C120.899 12.4915 120.781 12.4975 120.662 12.4975C118.72 12.4975 117.146 10.9234 117.146 8.98169C117.146 7.03998 118.72 5.46592 120.662 5.46592C122.603 5.46592 124.178 7.03998 124.178 8.98169C124.178 9.70628 123.958 10.3797 123.583 10.9392C124.56 13.0916 125.104 15.4823 125.104 18C125.104 27.446 117.446 35.1035 108 35.1035C104.079 35.1035 100.465 33.7838 97.5802 31.5642C96.895 31.037 96.8942 30.0303 97.523 29.437C98.0901 28.9018 98.9685 28.8997 99.595 29.3639C101.944 31.1043 104.852 32.1335 108 32.1335Z" fill="white"/>
<path d="M112.557 11.877C112.557 14.4227 110.493 16.4864 107.947 16.4864C105.402 16.4864 103.338 14.4227 103.338 11.877C103.338 9.33136 105.402 7.26768 107.947 7.26768C110.493 7.26768 112.557 9.33136 112.557 11.877Z" fill="white"/>
<path d="M107.969 17.7842C102.495 17.7842 100.256 21.1387 99.5182 24.3173C99.1796 25.7754 100.428 27.0021 101.924 26.9987C105.921 26.9897 110.994 26.9965 114.061 27.0024C115.564 27.0053 116.808 25.7649 116.452 24.3044C115.682 21.1484 113.42 17.7842 107.969 17.7842Z" fill="white"/>
<path d="M136.255 21.5001C135.488 22.1442 135 23.1104 135 24.1905C135 26.1296 136.572 27.7016 138.511 27.7016C140.45 27.7016 142.022 26.1296 142.022 24.1905C142.022 22.4627 140.774 21.0265 139.131 20.7338C138.957 19.8493 138.866 18.9353 138.866 18C138.866 10.1943 145.194 3.86648 153 3.86648C155.164 3.86648 157.214 4.35281 159.048 5.22213C159.671 5.5176 160.422 5.42683 160.91 4.93883C161.594 4.25312 161.471 3.10673 160.604 2.67533C158.313 1.53673 155.731 0.896484 153 0.896484C143.554 0.896484 135.896 8.55399 135.896 18C135.896 19.1995 136.02 20.3702 136.255 21.5001Z" fill="#191A23"/>
<path d="M153 32.1335C160.806 32.1335 167.134 25.8057 167.134 18C167.134 16.0414 166.735 14.1758 166.015 12.4799C165.899 12.4915 165.781 12.4975 165.662 12.4975C163.72 12.4975 162.146 10.9234 162.146 8.98169C162.146 7.03998 163.72 5.46592 165.662 5.46592C167.603 5.46592 169.178 7.03998 169.178 8.98169C169.178 9.70628 168.958 10.3797 168.583 10.9392C169.56 13.0916 170.104 15.4823 170.104 18C170.104 27.446 162.446 35.1035 153 35.1035C149.079 35.1035 145.465 33.7838 142.58 31.5642C141.895 31.037 141.894 30.0303 142.523 29.437C143.09 28.9018 143.969 28.8997 144.595 29.3639C146.944 31.1043 149.852 32.1335 153 32.1335Z" fill="#191A23"/>
<path d="M157.557 11.877C157.557 14.4227 155.493 16.4864 152.947 16.4864C150.402 16.4864 148.338 14.4227 148.338 11.877C148.338 9.33136 150.402 7.26768 152.947 7.26768C155.493 7.26768 157.557 9.33136 157.557 11.877Z" fill="#191A23"/>
<path d="M152.969 17.7842C147.495 17.7842 145.256 21.1387 144.518 24.3173C144.18 25.7754 145.428 27.0021 146.924 26.9987C150.921 26.9897 155.994 26.9965 159.061 27.0024C160.564 27.0053 161.808 25.7649 161.452 24.3044C160.682 21.1484 158.42 17.7842 152.969 17.7842Z" fill="#191A23"/>
<path fill-rule="evenodd" clip-rule="evenodd" d="M198 30C204.627 30 210 24.6274 210 18C210 11.3726 204.627 6 198 6C191.373 6 186 11.3726 186 18C186 24.6274 191.373 30 198 30ZM198 33C206.284 33 213 26.2843 213 18C213 9.71573 206.284 3 198 3C189.716 3 183 9.71573 183 18C183 26.2843 189.716 33 198 33Z" fill="white"/>
<path d="M196.5 18C196.5 17.1716 197.172 16.5 198 16.5C198.828 16.5 199.5 17.1716 199.5 18V24C199.5 24.8284 198.828 25.5 198 25.5C197.172 25.5 196.5 24.8284 196.5 24V18Z" fill="white"/>
<path d="M199.5 12C199.5 12.8284 198.828 13.5 198 13.5C197.172 13.5 196.5 12.8284 196.5 12C196.5 11.1716 197.172 10.5 198 10.5C198.828 10.5 199.5 11.1716 199.5 12Z" fill="white"/>
<path fill-rule="evenodd" clip-rule="evenodd" d="M243 30C249.627 30 255 24.6274 255 18C255 11.3726 249.627 6 243 6C236.373 6 231 11.3726 231 18C231 24.6274 236.373 30 243 30ZM243 33C251.284 33 258 26.2843 258 18C258 9.71573 251.284 3 243 3C234.716 3 228 9.71573 228 18C228 26.2843 234.716 33 243 33Z" fill="#191A23"/>
<path d="M241.5 18C241.5 17.1716 242.172 16.5 243 16.5C243.828 16.5 244.5 17.1716 244.5 18V24C244.5 24.8284 243.828 25.5 243 25.5C242.172 25.5 241.5 24.8284 241.5 24V18Z" fill="#191A23"/>
<path d="M244.5 12C244.5 12.8284 243.828 13.5 243 13.5C242.172 13.5 241.5 12.8284 241.5 12C241.5 11.1716 242.172 10.5 243 10.5C243.828 10.5 244.5 11.1716 244.5 12Z" fill="#191A23"/>
</svg>
