<svg width="162" height="36" viewBox="0 0 162 36" fill="none" xmlns="http://www.w3.org/2000/svg">
<path fill-rule="evenodd" clip-rule="evenodd" d="M17.9993 6C14.0338 6 10.5196 8.07852 7.87699 10.294C5.20877 12.5309 3.23454 15.0707 2.32234 16.3395C1.60479 17.3376 1.60479 18.6624 2.32234 19.6605C3.23454 20.9293 5.20877 23.4691 7.87699 25.706C10.5196 27.9215 14.0338 30 17.9993 30C21.9649 30 25.4791 27.9215 28.1217 25.706C30.7899 23.4691 32.7641 20.9293 33.6763 19.6605C34.3939 18.6624 34.3939 17.3376 33.6763 16.3395C32.7641 15.0707 30.7899 12.5309 28.1217 10.294C25.4791 8.07852 21.9649 6 17.9993 6ZM18 25.5C22.1421 25.5 25.5 22.1421 25.5 18C25.5 13.8579 22.1421 10.5 18 10.5C13.8579 10.5 10.5 13.8579 10.5 18C10.5 22.1421 13.8579 25.5 18 25.5Z" fill="white"/>
<path d="M22.5 18C22.5 20.4853 20.4853 22.5 18 22.5C15.5147 22.5 13.5 20.4853 13.5 18C13.5 15.5147 15.5147 13.5 18 13.5C20.4853 13.5 22.5 15.5147 22.5 18Z" fill="white"/>
<path d="M66.2328 7.65073C64.3512 6.66821 62.2478 6 59.9993 6C56.0338 6 52.5196 8.07852 49.877 10.294C47.2088 12.5309 45.2345 15.0707 44.3223 16.3395C43.6048 17.3376 43.6048 18.6624 44.3223 19.6605C45.128 20.7811 46.7621 22.8932 48.9711 24.9124L53.0526 20.8309C52.6963 19.9574 52.5 19.0016 52.5 18C52.5 13.8579 55.8579 10.5 60 10.5C61.0016 10.5 61.9574 10.6963 62.8309 11.0526L66.2328 7.65073Z" fill="white"/>
<path fill-rule="evenodd" clip-rule="evenodd" d="M63.2444 14.8817L63.2457 14.883L65.3673 12.7614L65.366 12.7602L68.8395 9.28666L68.841 9.28773L73.1893 4.93934C73.7751 4.35355 74.7249 4.35355 75.3107 4.93934C75.8964 5.52513 75.8964 6.47487 75.3107 7.06066L71.161 11.2103C73.3024 13.1919 74.887 15.2416 75.6763 16.3395C76.3939 17.3376 76.3939 18.6624 75.6763 19.6605C74.7641 20.9293 72.7899 23.4691 70.1217 25.706C67.4791 27.9215 63.9649 30 59.9993 30C57.818 30 55.7732 29.3711 53.9349 28.4364L51.3107 31.0607C50.7249 31.6464 49.7751 31.6464 49.1893 31.0607C48.6036 30.4749 48.6036 29.5251 49.1893 28.9393L51.3075 26.8212L51.306 26.8201L54.7602 23.366L54.7614 23.3673L56.883 21.2457L56.8817 21.2444L63.2444 14.8817ZM67.0192 15.3521L64.4982 17.8731C64.4994 17.9152 64.5 17.9576 64.5 18C64.5 20.4853 62.4853 22.5 60 22.5C59.9576 22.5 59.9152 22.4994 59.8731 22.4982L57.3521 25.0192C58.1755 25.33 59.0679 25.5 60 25.5C64.1421 25.5 67.5 22.1421 67.5 18C67.5 17.0679 67.33 16.1755 67.0192 15.3521Z" fill="white"/>
<path d="M60.3686 13.5149C60.2471 13.505 60.1241 13.5 60 13.5C57.5147 13.5 55.5 15.5147 55.5 18C55.5 18.1241 55.505 18.2471 55.5149 18.3686L60.3686 13.5149Z" fill="white"/>
<path fill-rule="evenodd" clip-rule="evenodd" d="M101.999 6C98.0338 6 94.5196 8.07852 91.877 10.294C89.2088 12.5309 87.2345 15.0707 86.3223 16.3395C85.6048 17.3376 85.6048 18.6624 86.3223 19.6605C87.2345 20.9293 89.2088 23.4691 91.877 25.706C94.5196 27.9215 98.0338 30 101.999 30C105.965 30 109.479 27.9215 112.122 25.706C114.79 23.4691 116.764 20.9293 117.676 19.6605C118.394 18.6624 118.394 17.3376 117.676 16.3395C116.764 15.0707 114.79 12.5309 112.122 10.294C109.479 8.07852 105.965 6 101.999 6ZM102 25.5C106.142 25.5 109.5 22.1421 109.5 18C109.5 13.8579 106.142 10.5 102 10.5C97.8579 10.5 94.5 13.8579 94.5 18C94.5 22.1421 97.8579 25.5 102 25.5Z" fill="#191A23"/>
<path d="M106.5 18C106.5 20.4853 104.485 22.5 102 22.5C99.5147 22.5 97.5 20.4853 97.5 18C97.5 15.5147 99.5147 13.5 102 13.5C104.485 13.5 106.5 15.5147 106.5 18Z" fill="#191A23"/>
<path d="M150.233 7.65073C148.351 6.66821 146.248 6 143.999 6C140.034 6 136.52 8.07852 133.877 10.294C131.209 12.5309 129.235 15.0707 128.322 16.3395C127.605 17.3376 127.605 18.6624 128.322 19.6605C129.128 20.7811 130.762 22.8932 132.971 24.9124L137.053 20.8309C136.696 19.9574 136.5 19.0016 136.5 18C136.5 13.8579 139.858 10.5 144 10.5C145.002 10.5 145.957 10.6963 146.831 11.0526L150.233 7.65073Z" fill="#191A23"/>
<path fill-rule="evenodd" clip-rule="evenodd" d="M147.244 14.8817L147.246 14.883L149.367 12.7614L149.366 12.7602L152.839 9.28666L152.841 9.28773L157.189 4.93934C157.775 4.35355 158.725 4.35355 159.311 4.93934C159.896 5.52513 159.896 6.47487 159.311 7.06066L155.161 11.2103C157.302 13.1919 158.887 15.2416 159.676 16.3395C160.394 17.3376 160.394 18.6624 159.676 19.6605C158.764 20.9293 156.79 23.4691 154.122 25.706C151.479 27.9215 147.965 30 143.999 30C141.818 30 139.773 29.3711 137.935 28.4364L135.311 31.0607C134.725 31.6464 133.775 31.6464 133.189 31.0607C132.604 30.4749 132.604 29.5251 133.189 28.9393L135.307 26.8212L135.306 26.8201L138.76 23.366L138.761 23.3673L140.883 21.2457L140.882 21.2444L147.244 14.8817ZM151.019 15.3521L148.498 17.8731C148.499 17.9152 148.5 17.9576 148.5 18C148.5 20.4853 146.485 22.5 144 22.5C143.958 22.5 143.915 22.4994 143.873 22.4982L141.352 25.0192C142.175 25.33 143.068 25.5 144 25.5C148.142 25.5 151.5 22.1421 151.5 18C151.5 17.0679 151.33 16.1755 151.019 15.3521Z" fill="#191A23"/>
<path d="M144.369 13.5149C144.247 13.505 144.124 13.5 144 13.5C141.515 13.5 139.5 15.5147 139.5 18C139.5 18.1241 139.505 18.2471 139.515 18.3686L144.369 13.5149Z" fill="#191A23"/>
</svg>
