<svg width="16" height="16" viewBox="0 0 16 16" fill="none" xmlns="http://www.w3.org/2000/svg">
<path d="M0.666626 13.3333V10.6667C0.666626 10.2889 0.797293 9.97222 1.05863 9.71666C1.31951 9.46111 1.63329 9.33333 1.99996 9.33333H4.18329C4.40551 9.33333 4.61663 9.38889 4.81663 9.5C5.01663 9.61111 5.17774 9.76111 5.29996 9.95C5.62218 10.3833 6.01951 10.7222 6.49196 10.9667C6.96396 11.2111 7.46663 11.3333 7.99996 11.3333C8.5444 11.3333 9.05285 11.2111 9.52529 10.9667C9.99729 10.7222 10.3888 10.3833 10.7 9.95C10.8444 9.76111 11.0137 9.61111 11.208 9.5C11.4026 9.38889 11.6055 9.33333 11.8166 9.33333H14C14.3777 9.33333 14.6944 9.46111 14.95 9.71666C15.2055 9.97222 15.3333 10.2889 15.3333 10.6667V13.3333H10.6666V11.8167C10.2777 12.0944 9.8584 12.3056 9.40863 12.45C8.9584 12.5944 8.48885 12.6667 7.99996 12.6667C7.52218 12.6667 7.05551 12.5918 6.59996 12.442C6.1444 12.2918 5.72218 12.0778 5.33329 11.8V13.3333H0.666626ZM7.99996 10.6667C7.57774 10.6667 7.17774 10.5693 6.79996 10.3747C6.42218 10.1804 6.10551 9.91111 5.84996 9.56666C5.66107 9.28889 5.42507 9.06955 5.14196 8.90866C4.8584 8.74733 4.54996 8.66666 4.21663 8.66666C4.46107 8.25555 4.97774 7.93044 5.76663 7.69133C6.55551 7.45266 7.29996 7.33333 7.99996 7.33333C8.69996 7.33333 9.4444 7.45266 10.2333 7.69133C11.0222 7.93044 11.5388 8.25555 11.7833 8.66666C11.4611 8.66666 11.1555 8.74733 10.8666 8.90866C10.5777 9.06955 10.3388 9.28889 10.15 9.56666C9.90551 9.92222 9.5944 10.1944 9.21663 10.3833C8.83885 10.5722 8.43329 10.6667 7.99996 10.6667ZM2.66663 8.66666C2.11107 8.66666 1.63885 8.47222 1.24996 8.08333C0.86107 7.69444 0.666626 7.22222 0.666626 6.66666C0.666626 6.1 0.86107 5.62489 1.24996 5.24133C1.63885 4.85822 2.11107 4.66666 2.66663 4.66666C3.23329 4.66666 3.7084 4.85822 4.09196 5.24133C4.47507 5.62489 4.66663 6.1 4.66663 6.66666C4.66663 7.22222 4.47507 7.69444 4.09196 8.08333C3.7084 8.47222 3.23329 8.66666 2.66663 8.66666ZM13.3333 8.66666C12.7777 8.66666 12.3055 8.47222 11.9166 8.08333C11.5277 7.69444 11.3333 7.22222 11.3333 6.66666C11.3333 6.1 11.5277 5.62489 11.9166 5.24133C12.3055 4.85822 12.7777 4.66666 13.3333 4.66666C13.9 4.66666 14.3751 4.85822 14.7586 5.24133C15.1417 5.62489 15.3333 6.1 15.3333 6.66666C15.3333 7.22222 15.1417 7.69444 14.7586 8.08333C14.3751 8.47222 13.9 8.66666 13.3333 8.66666ZM7.99996 6.66666C7.4444 6.66666 6.97218 6.47222 6.58329 6.08333C6.1944 5.69444 5.99996 5.22222 5.99996 4.66666C5.99996 4.1 6.1944 3.62489 6.58329 3.24133C6.97218 2.85822 7.4444 2.66666 7.99996 2.66666C8.56663 2.66666 9.04151 2.85822 9.42463 3.24133C9.80818 3.62489 9.99996 4.1 9.99996 4.66666C9.99996 5.22222 9.80818 5.69444 9.42463 6.08333C9.04151 6.47222 8.56663 6.66666 7.99996 6.66666Z" fill="#777777"/>
</svg>
