<svg width="76" height="16" viewBox="0 0 76 16" fill="none" xmlns="http://www.w3.org/2000/svg">
<path d="M12.5666 6.93328L9.73329 4.09995L11.3833 2.44995L14.2166 5.28328L12.5666 6.93328ZM2.66663 14V11.1666L8.79996 5.03328L11.6333 7.86662L5.49996 14H2.66663Z" fill="#777777"/>
<path d="M22 14V3.86667L23.5333 2H32.4667L34 3.86667V14H22ZM23.6 4H32.4L31.8333 3.33333H24.1667L23.6 4ZM28 12L30.6667 9.33333L29.7333 8.4L28.6667 9.46667V6.66667H27.3333V9.46667L26.2667 8.4L25.3333 9.33333L28 12Z" fill="#777777"/>
<path d="M47.3334 12.6667V8.66671H43.3334V7.33337H47.3334V3.33337H48.6667V7.33337H52.6667V8.66671H48.6667V12.6667H47.3334Z" fill="#777777"/>
<path d="M64.6667 12V1.33337H73.3333V12H64.6667ZM62 14.6667V4.00004H63.3333V13.3334H70.6667V14.6667H62Z" fill="#777777"/>
</svg>
