<svg width="36" height="36" viewBox="0 0 36 36" fill="none" xmlns="http://www.w3.org/2000/svg">
<path d="M27 21C25.3431 21 24 19.6569 24 18C24 16.3431 25.3431 15 27 15C28.6569 15 30 16.3431 30 18C30 19.6569 28.6569 21 27 21Z" fill="#191A23"/>
<path d="M18 21C16.3431 21 15 19.6569 15 18C15 16.3431 16.3431 15 18 15C19.6569 15 21 16.3431 21 18C21 19.6569 19.6569 21 18 21Z" fill="#191A23"/>
<path d="M9 21C7.34315 21 6 19.6569 6 18C6 16.3431 7.34315 15 9 15C10.6569 15 12 16.3431 12 18C12 19.6569 10.6569 21 9 21Z" fill="#191A23"/>
</svg>
