<svg width="438" height="36" viewBox="0 0 438 36" fill="none" xmlns="http://www.w3.org/2000/svg">
<path fill-rule="evenodd" clip-rule="evenodd" d="M33 18C33 26.2843 26.2843 33 18 33C9.71573 33 3 26.2843 3 18C3 9.71573 9.71573 3 18 3C26.2843 3 33 9.71573 33 18ZM18.5373 14.0734C17.0783 14.6803 14.1625 15.9363 9.78965 17.8414C9.07958 18.1238 8.70761 18.4001 8.67375 18.6702C8.61652 19.1267 9.18818 19.3064 9.96663 19.5512C10.0725 19.5845 10.1822 19.619 10.2947 19.6555C11.0606 19.9045 12.0908 20.1958 12.6264 20.2073C13.1122 20.2178 13.6544 20.0175 14.2531 19.6065C18.3387 16.8485 20.4478 15.4545 20.5802 15.4245C20.6736 15.4033 20.803 15.3766 20.8907 15.4546C20.9785 15.5325 20.9698 15.6802 20.9605 15.7198C20.9039 15.9612 18.6599 18.0474 17.4987 19.127C17.1367 19.4636 16.8799 19.7023 16.8274 19.7568C16.7098 19.879 16.5899 19.9945 16.4748 20.1055C15.7632 20.7914 15.2297 21.3058 16.5043 22.1458C17.1168 22.5494 17.607 22.8832 18.096 23.2162C18.63 23.5799 19.1626 23.9426 19.8518 24.3944C20.0274 24.5095 20.1951 24.629 20.3584 24.7454C20.9799 25.1885 21.5382 25.5866 22.228 25.5231C22.6288 25.4862 23.0429 25.1093 23.2531 23.9852C23.7501 21.3287 24.7268 15.5729 24.9526 13.201C24.9723 12.9932 24.9475 12.7272 24.9275 12.6105C24.9075 12.4938 24.8657 12.3274 24.714 12.2043C24.5343 12.0585 24.2568 12.0277 24.1327 12.0299C23.5686 12.0398 22.703 12.3408 18.5373 14.0734Z" fill="white"/>
<path d="M64 22.5C66.4853 22.5 68.5 20.4853 68.5 18C68.5 15.5147 66.4853 13.5 64 13.5C61.5147 13.5 59.5 15.5147 59.5 18C59.5 20.4853 61.5147 22.5 64 22.5Z" fill="white"/>
<path fill-rule="evenodd" clip-rule="evenodd" d="M55 3C51.6863 3 49 5.68629 49 9V27C49 30.3137 51.6863 33 55 33H73C76.3137 33 79 30.3137 79 27V9C79 5.68629 76.3137 3 73 3H55ZM64 25.5C68.1421 25.5 71.5 22.1421 71.5 18C71.5 13.8579 68.1421 10.5 64 10.5C59.8579 10.5 56.5 13.8579 56.5 18C56.5 22.1421 59.8579 25.5 64 25.5ZM73 9C73 9.82843 72.3284 10.5 71.5 10.5C70.6716 10.5 70 9.82843 70 9C70 8.17157 70.6716 7.5 71.5 7.5C72.3284 7.5 73 8.17157 73 9Z" fill="white"/>
<path d="M103.574 29.0328H98.7747V13.175H103.782V29.0328H103.574ZM101.279 11.0884C99.6094 11.0884 98.3574 9.62785 98.3574 8.16727C98.3574 6.49802 99.6094 5.24609 101.279 5.24609C102.948 5.24609 104.2 6.49802 104.2 8.16727C103.991 9.62785 102.739 11.0884 101.279 11.0884ZM122.144 29.0328H117.136V21.3125C117.136 19.4346 117.136 17.1394 114.633 17.1394C112.129 17.1394 111.711 19.226 111.711 21.3125V29.2414H106.704V13.175H111.503V15.2615C112.129 14.0096 113.798 12.7577 116.093 12.7577C121.101 12.7577 121.935 16.0962 121.935 20.2693V29.0328H122.144Z" fill="white"/>
<path d="M167.988 13.2804C167.868 12.5 166.999 12.0798 166.399 11.6896C165.32 10.9692 164.271 10.2788 163.192 9.55845C160.645 7.84755 158.067 6.13665 155.52 4.42575C154.92 4.03554 154.321 3.61532 153.722 3.22512C153.302 2.92496 152.733 2.92496 152.283 3.22512C150.575 4.36572 148.836 5.53633 147.128 6.67693L139.575 11.7196C138.916 12.1398 138.047 12.56 138.017 13.4605C137.987 14.451 138.017 15.4716 138.017 16.4621V21.2646C138.017 22.1351 137.837 23.1556 138.646 23.6959C140.565 25.0166 142.513 26.2772 144.461 27.5679C146.858 29.1587 149.256 30.7796 151.654 32.3704C152.313 32.8207 152.972 33.3009 153.782 32.7606C154.471 32.3104 155.13 31.8602 155.82 31.4099C158.487 29.639 161.154 27.838 163.822 26.0671L166.789 24.0861C166.969 23.966 167.178 23.846 167.358 23.6959C167.778 23.3957 167.958 22.9755 167.958 22.4652V14.2109C167.988 13.8807 168.018 13.5806 167.988 13.2804C167.988 13.3404 167.988 13.2504 167.988 13.2804ZM154.291 6.70695L164.391 13.4605L159.896 16.4921L154.291 12.7401V6.70695ZM151.714 6.70695V12.7101L146.139 16.4621L141.613 13.4605L151.714 6.70695ZM140.594 15.8618L143.801 18.0229L140.594 20.184V15.8618ZM151.714 29.3388L141.613 22.5853L146.109 19.5537L151.684 23.3057V29.3388H151.714ZM153.002 21.0845L148.447 18.0229L153.002 14.9613L157.558 18.0229L153.002 21.0845ZM154.291 29.3388V23.3357L159.866 19.5837L164.361 22.6153L154.291 29.3388ZM165.41 20.184L162.203 18.0229L165.44 15.8618L165.41 20.184Z" fill="white"/>
<path d="M198.577 34.5V22.9004H202.422L203.153 18.1007H198.577V14.9865C198.577 13.6745 199.216 12.3928 201.267 12.3928H203.348V8.30745C203.348 8.30745 201.459 7.98295 199.654 7.98295C195.886 7.98295 193.422 10.2801 193.422 14.4425V18.1007H189.231V22.9004H193.422V34.4999C185.534 33.2545 179.5 26.3865 179.5 18.1007C179.5 8.93237 186.887 1.5 196 1.5C205.113 1.5 212.5 8.93237 212.5 18.1007C212.5 26.3868 206.466 33.255 198.577 34.5Z" fill="white"/>
<path fill-rule="evenodd" clip-rule="evenodd" d="M257 18C257 26.2843 250.284 33 242 33C233.716 33 227 26.2843 227 18C227 9.71573 233.716 3 242 3C250.284 3 257 9.71573 257 18ZM242.537 14.0734C241.078 14.6803 238.162 15.9363 233.79 17.8414C233.08 18.1238 232.708 18.4001 232.674 18.6702C232.617 19.1267 233.188 19.3064 233.967 19.5512C234.073 19.5845 234.182 19.619 234.295 19.6555C235.061 19.9045 236.091 20.1958 236.626 20.2073C237.112 20.2178 237.654 20.0175 238.253 19.6065C242.339 16.8485 244.448 15.4545 244.58 15.4245C244.674 15.4033 244.803 15.3766 244.891 15.4546C244.978 15.5325 244.97 15.6802 244.961 15.7198C244.904 15.9612 242.66 18.0474 241.499 19.127C241.137 19.4636 240.88 19.7023 240.827 19.7568C240.71 19.879 240.59 19.9945 240.475 20.1055C239.763 20.7914 239.23 21.3058 240.504 22.1458C241.117 22.5494 241.607 22.8832 242.096 23.2162C242.63 23.5799 243.163 23.9426 243.852 24.3944C244.027 24.5095 244.195 24.629 244.358 24.7454C244.98 25.1885 245.538 25.5866 246.228 25.5231C246.629 25.4862 247.043 25.1093 247.253 23.9852C247.75 21.3287 248.727 15.5729 248.953 13.201C248.972 12.9932 248.947 12.7272 248.927 12.6105C248.907 12.4938 248.866 12.3274 248.714 12.2043C248.534 12.0585 248.257 12.0277 248.133 12.0299C247.569 12.0398 246.703 12.3408 242.537 14.0734Z" fill="#191A23"/>
<path d="M288 22.5C290.485 22.5 292.5 20.4853 292.5 18C292.5 15.5147 290.485 13.5 288 13.5C285.515 13.5 283.5 15.5147 283.5 18C283.5 20.4853 285.515 22.5 288 22.5Z" fill="#191A23"/>
<path fill-rule="evenodd" clip-rule="evenodd" d="M279 3C275.686 3 273 5.68629 273 9V27C273 30.3137 275.686 33 279 33H297C300.314 33 303 30.3137 303 27V9C303 5.68629 300.314 3 297 3H279ZM288 25.5C292.142 25.5 295.5 22.1421 295.5 18C295.5 13.8579 292.142 10.5 288 10.5C283.858 10.5 280.5 13.8579 280.5 18C280.5 22.1421 283.858 25.5 288 25.5ZM297 9C297 9.82843 296.328 10.5 295.5 10.5C294.672 10.5 294 9.82843 294 9C294 8.17157 294.672 7.5 295.5 7.5C296.328 7.5 297 8.17157 297 9Z" fill="#191A23"/>
<path d="M327.574 29.0328H322.775V13.175H327.783V29.0328H327.574ZM325.279 11.0884C323.61 11.0884 322.358 9.62785 322.358 8.16727C322.358 6.49802 323.61 5.24609 325.279 5.24609C326.948 5.24609 328.2 6.49802 328.2 8.16727C327.992 9.62785 326.74 11.0884 325.279 11.0884ZM346.145 29.0328H341.137V21.3125C341.137 19.4346 341.137 17.1394 338.633 17.1394C336.129 17.1394 335.712 19.226 335.712 21.3125V29.2414H330.704V13.175H335.503V15.2615C336.129 14.0096 337.798 12.7577 340.094 12.7577C345.101 12.7577 345.936 16.0962 345.936 20.2693V29.0328H346.145Z" fill="#191A23"/>
<path d="M391.988 13.2804C391.868 12.5 390.999 12.0798 390.399 11.6896C389.32 10.9692 388.271 10.2788 387.192 9.55845C384.645 7.84755 382.067 6.13665 379.52 4.42575C378.92 4.03554 378.321 3.61532 377.722 3.22512C377.302 2.92496 376.733 2.92496 376.283 3.22512C374.575 4.36572 372.836 5.53633 371.128 6.67693L363.575 11.7196C362.916 12.1398 362.047 12.56 362.017 13.4605C361.987 14.451 362.017 15.4716 362.017 16.4621V21.2646C362.017 22.1351 361.837 23.1556 362.646 23.6959C364.565 25.0166 366.513 26.2772 368.461 27.5679C370.858 29.1587 373.256 30.7796 375.654 32.3704C376.313 32.8207 376.972 33.3009 377.782 32.7606C378.471 32.3104 379.13 31.8602 379.82 31.4099C382.487 29.639 385.154 27.838 387.822 26.0671L390.789 24.0861C390.969 23.966 391.178 23.846 391.358 23.6959C391.778 23.3957 391.958 22.9755 391.958 22.4652V14.2109C391.988 13.8807 392.018 13.5806 391.988 13.2804C391.988 13.3404 391.988 13.2504 391.988 13.2804ZM378.291 6.70695L388.391 13.4605L383.896 16.4921L378.291 12.7401V6.70695ZM375.714 6.70695V12.7101L370.139 16.4621L365.613 13.4605L375.714 6.70695ZM364.594 15.8618L367.801 18.0229L364.594 20.184V15.8618ZM375.714 29.3388L365.613 22.5853L370.109 19.5537L375.684 23.3057V29.3388H375.714ZM377.002 21.0845L372.447 18.0229L377.002 14.9613L381.558 18.0229L377.002 21.0845ZM378.291 29.3388V23.3357L383.866 19.5837L388.361 22.6153L378.291 29.3388ZM389.41 20.184L386.203 18.0229L389.44 15.8618L389.41 20.184Z" fill="#191A23"/>
<path d="M422.577 34.5V22.9004H426.422L427.153 18.1007H422.577V14.9865C422.577 13.6745 423.216 12.3928 425.267 12.3928H427.348V8.30745C427.348 8.30745 425.459 7.98295 423.654 7.98295C419.886 7.98295 417.422 10.2801 417.422 14.4425V18.1007H413.231V22.9004H417.422V34.4999C409.534 33.2545 403.5 26.3865 403.5 18.1007C403.5 8.93237 410.887 1.5 420 1.5C429.113 1.5 436.5 8.93237 436.5 18.1007C436.5 26.3868 430.466 33.255 422.577 34.5Z" fill="#191A23"/>
</svg>
