<svg width="20" height="20" viewBox="0 0 20 20" fill="none" xmlns="http://www.w3.org/2000/svg">
<path d="M10 1.66667C5.40835 1.66667 1.66669 5.40833 1.66669 10C1.66669 14.5917 5.40835 18.3333 10 18.3333C14.5917 18.3333 18.3334 14.5917 18.3334 10C18.3334 5.40833 14.5917 1.66667 10 1.66667ZM13.9834 8.08333L9.25835 12.8083C9.14169 12.925 8.98335 12.9917 8.81669 12.9917C8.65002 12.9917 8.49169 12.925 8.37502 12.8083L6.01669 10.45C5.77502 10.2083 5.77502 9.80833 6.01669 9.56667C6.25835 9.325 6.65835 9.325 6.90002 9.56667L8.81669 11.4833L13.1 7.2C13.3417 6.95833 13.7417 6.95833 13.9834 7.2C14.225 7.44167 14.225 7.83333 13.9834 8.08333Z" fill="#50C878"/>
</svg>
