<svg width="73" height="16" viewBox="0 0 73 16" fill="none" xmlns="http://www.w3.org/2000/svg">
<path d="M2.66663 14.6667V5.33335H4.66663V4.00002C4.66663 3.0778 4.99174 2.29158 5.64196 1.64135C6.29174 0.991576 7.07774 0.666687 7.99996 0.666687C8.92218 0.666687 9.7084 0.991576 10.3586 1.64135C11.0084 2.29158 11.3333 3.0778 11.3333 4.00002V5.33335H13.3333V14.6667H2.66663ZM5.99996 5.33335H9.99996V4.00002C9.99996 3.44446 9.80551 2.97224 9.41663 2.58335C9.02774 2.19446 8.55551 2.00002 7.99996 2.00002C7.4444 2.00002 6.97218 2.19446 6.58329 2.58335C6.1944 2.97224 5.99996 3.44446 5.99996 4.00002V5.33335ZM7.99996 11.3334C8.36663 11.3334 8.68063 11.2029 8.94196 10.942C9.20285 10.6807 9.33329 10.3667 9.33329 10C9.33329 9.63335 9.20285 9.31935 8.94196 9.05802C8.68063 8.79713 8.36663 8.66669 7.99996 8.66669C7.63329 8.66669 7.31951 8.79713 7.05863 9.05802C6.79729 9.31935 6.66663 9.63335 6.66663 10C6.66663 10.3667 6.79729 10.6807 7.05863 10.942C7.31951 11.2029 7.63329 11.3334 7.99996 11.3334Z" fill="#777777"/>
<path d="M27 14.6666C26.0778 14.6666 25.2112 14.4915 24.4 14.1413C23.5889 13.7915 22.8834 13.3166 22.2834 12.7166C21.6834 12.1166 21.2085 11.4111 20.8587 10.6C20.5085 9.78887 20.3334 8.9222 20.3334 7.99998C20.3334 7.07776 20.5085 6.21109 20.8587 5.39998C21.2085 4.58887 21.6834 3.88331 22.2834 3.28331C22.8834 2.68331 23.5889 2.2082 24.4 1.85798C25.2112 1.5082 26.0778 1.33331 27 1.33331C27.9223 1.33331 28.7889 1.5082 29.6 1.85798C30.4112 2.2082 31.1167 2.68331 31.7167 3.28331C32.3167 3.88331 32.7916 4.58887 33.1414 5.39998C33.4916 6.21109 33.6667 7.07776 33.6667 7.99998C33.6667 8.9222 33.4916 9.78887 33.1414 10.6C32.7916 11.4111 32.3167 12.1166 31.7167 12.7166C31.1167 13.3166 30.4112 13.7915 29.6 14.1413C28.7889 14.4915 27.9223 14.6666 27 14.6666ZM26.3334 13.3V12C25.9667 12 25.6529 11.8695 25.392 11.6086C25.1307 11.3473 25 11.0333 25 10.6666V9.99998L21.8 6.79998C21.7667 6.99998 21.736 7.19998 21.708 7.39998C21.6805 7.59998 21.6667 7.79998 21.6667 7.99998C21.6667 9.34442 22.1085 10.5222 22.992 11.5333C23.8752 12.5444 24.9889 13.1333 26.3334 13.3ZM30.9334 11.6C31.1556 11.3555 31.3556 11.0915 31.5334 10.808C31.7112 10.5249 31.8585 10.2304 31.9754 9.92465C32.0918 9.61931 32.1807 9.30554 32.242 8.98331C32.3029 8.66109 32.3334 8.33331 32.3334 7.99998C32.3334 6.91109 32.0307 5.91665 31.4254 5.01665C30.8196 4.11665 30.0112 3.46665 29 3.06665V3.33331C29 3.69998 28.8696 4.01376 28.6087 4.27465C28.3474 4.53598 28.0334 4.66665 27.6667 4.66665H26.3334V5.99998C26.3334 6.18887 26.2696 6.34709 26.142 6.47465C26.014 6.60265 25.8556 6.66665 25.6667 6.66665H24.3334V7.99998H28.3334C28.5223 7.99998 28.6807 8.06376 28.8087 8.19131C28.9363 8.31931 29 8.47776 29 8.66665V10.6666H29.6667C29.9556 10.6666 30.2167 10.7526 30.45 10.9246C30.6834 11.0971 30.8445 11.3222 30.9334 11.6V11.6Z" fill="#777777"/>
<path d="M40.6666 14.6667V5.33335H42.6666V4.00002C42.6666 3.0778 42.9917 2.29158 43.642 1.64135C44.2917 0.991576 45.0777 0.666687 46 0.666687C46.9222 0.666687 47.7084 0.991576 48.3586 1.64135C49.0084 2.29158 49.3333 3.0778 49.3333 4.00002V5.33335H51.3333V14.6667H40.6666ZM44 5.33335H48V4.00002C48 3.44446 47.8055 2.97224 47.4166 2.58335C47.0277 2.19446 46.5555 2.00002 46 2.00002C45.4444 2.00002 44.9722 2.19446 44.5833 2.58335C44.1944 2.97224 44 3.44446 44 4.00002V5.33335ZM46 11.3334C46.3666 11.3334 46.6806 11.2029 46.942 10.942C47.2028 10.6807 47.3333 10.3667 47.3333 10C47.3333 9.63335 47.2028 9.31935 46.942 9.05802C46.6806 8.79713 46.3666 8.66669 46 8.66669C45.6333 8.66669 45.3195 8.79713 45.0586 9.05802C44.7973 9.31935 44.6666 9.63335 44.6666 10C44.6666 10.3667 44.7973 10.6807 45.0586 10.942C45.3195 11.2029 45.6333 11.3334 46 11.3334Z" fill="#6B5DFF"/>
<path d="M65 14.6666C64.0778 14.6666 63.2112 14.4915 62.4 14.1413C61.5889 13.7915 60.8834 13.3166 60.2834 12.7166C59.6834 12.1166 59.2085 11.4111 58.8587 10.6C58.5085 9.78887 58.3334 8.9222 58.3334 7.99998C58.3334 7.07776 58.5085 6.21109 58.8587 5.39998C59.2085 4.58887 59.6834 3.88331 60.2834 3.28331C60.8834 2.68331 61.5889 2.2082 62.4 1.85798C63.2112 1.5082 64.0778 1.33331 65 1.33331C65.9223 1.33331 66.7889 1.5082 67.6 1.85798C68.4112 2.2082 69.1167 2.68331 69.7167 3.28331C70.3167 3.88331 70.7916 4.58887 71.1414 5.39998C71.4916 6.21109 71.6667 7.07776 71.6667 7.99998C71.6667 8.9222 71.4916 9.78887 71.1414 10.6C70.7916 11.4111 70.3167 12.1166 69.7167 12.7166C69.1167 13.3166 68.4112 13.7915 67.6 14.1413C66.7889 14.4915 65.9223 14.6666 65 14.6666ZM64.3334 13.3V12C63.9667 12 63.6529 11.8695 63.392 11.6086C63.1307 11.3473 63 11.0333 63 10.6666V9.99998L59.8 6.79998C59.7667 6.99998 59.736 7.19998 59.708 7.39998C59.6805 7.59998 59.6667 7.79998 59.6667 7.99998C59.6667 9.34442 60.1085 10.5222 60.992 11.5333C61.8752 12.5444 62.9889 13.1333 64.3334 13.3ZM68.9334 11.6C69.1556 11.3555 69.3556 11.0915 69.5334 10.808C69.7112 10.5249 69.8585 10.2304 69.9754 9.92465C70.0918 9.61931 70.1807 9.30554 70.242 8.98331C70.3029 8.66109 70.3334 8.33331 70.3334 7.99998C70.3334 6.91109 70.0307 5.91665 69.4254 5.01665C68.8196 4.11665 68.0112 3.46665 67 3.06665V3.33331C67 3.69998 66.8696 4.01376 66.6087 4.27465C66.3474 4.53598 66.0334 4.66665 65.6667 4.66665H64.3334V5.99998C64.3334 6.18887 64.2696 6.34709 64.142 6.47465C64.014 6.60265 63.8556 6.66665 63.6667 6.66665H62.3334V7.99998H66.3334C66.5223 7.99998 66.6807 8.06376 66.8087 8.19131C66.9363 8.31931 67 8.47776 67 8.66665V10.6666H67.6667C67.9556 10.6666 68.2167 10.7526 68.45 10.9246C68.6834 11.0971 68.8445 11.3222 68.9334 11.6V11.6Z" fill="#6B5DFF"/>
</svg>
